<svg width="152" height="49" viewBox="0 0 152 49" fill="none" xmlns="http://www.w3.org/2000/svg">
<path d="M9.9668 28.7754C9.86426 28.7139 9.76172 28.6729 9.67969 28.6523C9.59766 28.6318 9.53613 28.6318 9.47461 28.6113C9.39258 28.6113 9.33105 28.5908 9.24902 28.5703C9.16699 28.5498 9.08496 28.4883 8.96191 28.4268C8.85938 28.3447 8.71582 28.2422 8.55176 28.0781C8.24414 27.75 7.91602 27.4629 7.54688 27.1963C6.78809 26.6631 6.00879 26.0068 5.18848 25.248C4.38867 24.4688 3.75293 23.71 3.30176 22.9307C2.39941 21.4131 2.1123 19.8135 2.37891 18.1113C2.58398 16.8604 3.03516 15.6914 3.73242 14.584C5.96777 11.3438 8.9209 9.00586 12.6123 7.57031C13.3301 7.24219 14.0684 6.97559 14.8271 6.79102C14.8887 6.79102 14.9297 6.77051 14.9707 6.77051C15.2373 6.70898 15.5039 6.66797 15.8115 6.60645C16.1191 6.54492 16.3857 6.4834 16.6113 6.44238C18.1084 6.19629 19.5029 6.46289 20.7744 7.22168C21.7383 7.83691 22.6611 8.67773 23.6045 9.74414C24.5273 10.8105 24.8555 11.959 24.5684 13.1895C24.5273 13.21 24.4863 13.1484 24.4453 13.0459C24.4043 12.9229 24.3633 12.8203 24.3223 12.6768C24.3018 12.5742 24.2607 12.4922 24.2402 12.4307C24.2197 12.3486 24.1992 12.3076 24.1787 12.3076C24.1582 12.2871 24.1377 12.3281 24.1172 12.4102C24.0967 12.4922 24.0762 12.6562 24.0557 12.8613C24.0146 13.2305 23.8096 13.6816 23.4609 14.1738C23.1123 14.6865 22.7842 15.1172 22.4766 15.4863C22.415 15.5479 22.374 15.6094 22.3125 15.6709C22.2715 15.7529 22.21 15.8145 22.1689 15.876C22.0049 16.0811 21.8613 16.2451 21.7588 16.4092C21.6357 16.5527 21.5127 16.7373 21.3691 16.9834C21.1846 17.2295 20.959 17.4961 20.7129 17.7832C20.4463 18.0703 20.2207 18.3574 20.0156 18.665C19.9541 18.7676 19.8721 18.8906 19.7695 19.0547C19.585 19.3213 19.3799 19.6289 19.1543 19.998C18.9082 20.3467 18.6826 20.6543 18.457 20.9209C18.252 21.208 18.0674 21.3721 17.9238 21.4131C17.9033 21.4131 17.8828 21.4131 17.8623 21.4131C17.8418 21.3926 17.8418 21.3926 17.8213 21.3926C17.8213 21.3926 17.8213 21.3721 17.8008 21.3721C17.8008 21.3721 17.8008 21.3721 17.8213 21.3926V21.4131C17.8213 21.4336 17.8213 21.4541 17.8008 21.4746C17.8008 21.4951 17.8008 21.5156 17.7803 21.5361C17.7803 21.5771 17.7598 21.5977 17.7393 21.6387C17.7188 21.6797 17.6982 21.7207 17.6777 21.7617C17.6162 21.8848 17.5342 21.9873 17.4521 22.0488C17.3906 22.1104 17.3291 22.1924 17.2471 22.2949C17.1855 22.377 17.1035 22.541 17.0215 22.7461C17.001 22.7871 16.9805 22.8486 16.9395 22.9102C16.8779 23.0947 16.7754 23.3203 16.6729 23.5459C16.5703 23.792 16.4473 23.9766 16.3242 24.1201C16.2012 24.2842 16.0781 24.3252 15.9551 24.2637C15.8115 24.2021 15.709 23.9561 15.6064 23.5459C15.5244 23.2793 15.4629 23.0947 15.4219 22.9717C15.3809 22.8281 15.3193 22.7666 15.2988 22.7256C15.2578 22.7051 15.2373 22.7051 15.1963 22.7256C15.1758 22.7461 15.1553 22.7871 15.1348 22.8281C15.1143 22.8691 15.0732 22.9102 15.0527 22.9307C15.0322 22.9512 15.0117 22.9512 14.9707 22.9102C14.9502 22.8691 14.9092 22.7871 14.8682 22.6436C14.6426 21.7002 14.7246 20.8799 15.1348 20.1826C15.5449 19.4854 16.0576 18.8086 16.6934 18.1729C16.8779 17.9678 17.083 17.7422 17.2676 17.5371C17.4727 17.3115 17.6572 17.1064 17.8418 16.8809C18.2314 16.4502 18.6211 15.999 18.9902 15.5479C19.0928 15.4248 19.2158 15.3018 19.3184 15.1582C19.9336 14.502 20.5488 13.7021 21.1436 12.7998C21.7383 11.8975 21.9434 11.0771 21.7793 10.2979C21.6768 10.1748 21.5537 10.0723 21.4307 9.96973C21.3896 9.94922 21.3691 9.92871 21.3486 9.9082C21.0615 9.70312 20.8359 9.58008 20.6719 9.53906C20.5283 9.49805 20.3848 9.47754 20.2207 9.49805C20.0566 9.51855 19.7695 9.49805 19.3799 9.41602C19.2363 9.39551 19.1338 9.375 19.0723 9.375C19.0107 9.375 18.9492 9.39551 18.9287 9.39551C18.8877 9.41602 18.8672 9.43652 18.8467 9.45703C18.8467 9.47754 18.8262 9.47754 18.8057 9.49805C18.7852 9.49805 18.7441 9.51855 18.7031 9.49805C18.6621 9.49805 18.6006 9.49805 18.498 9.45703C18.416 9.43652 18.3135 9.39551 18.1699 9.33398C18.0674 9.29297 17.9854 9.27246 17.9238 9.27246C17.8623 9.27246 17.8213 9.27246 17.7803 9.29297C17.7393 9.31348 17.7188 9.33398 17.6777 9.35449C17.6367 9.41602 17.5547 9.45703 17.4316 9.49805C17.3291 9.53906 17.165 9.55957 16.9189 9.53906C16.6318 9.53906 16.4473 9.53906 16.3037 9.60059C16.1807 9.6416 16.0576 9.68262 15.9551 9.76465C15.873 9.82617 15.7705 9.86719 15.6475 9.92871C15.5244 9.99023 15.3604 10.0518 15.1553 10.1133C14.9912 10.1543 14.8682 10.1953 14.7451 10.2158C14.5195 10.2568 14.335 10.3184 14.1709 10.3799C13.9863 10.4414 13.7812 10.5645 13.4941 10.749C13.3711 10.8105 13.248 10.8516 13.125 10.8721C12.9814 10.8721 12.8379 10.9336 12.6533 10.9951C12.1201 11.2617 11.71 11.5283 11.3818 11.7539C11.0742 12 10.7461 12.2666 10.3975 12.5742C10.2334 12.7178 10.0488 12.8818 9.84375 13.0459C9.57715 13.2715 9.37207 13.415 9.1875 13.5176C9.04395 13.6201 8.90039 13.7227 8.73633 13.8457C8.57227 13.9688 8.36719 14.1738 8.1416 14.4609C8.01855 14.6045 7.93652 14.707 7.875 14.7891C7.81348 14.8506 7.75195 14.9121 7.69043 14.9531C7.62891 14.9941 7.56738 15.0557 7.46484 15.1172C7.40332 15.1582 7.30078 15.2197 7.19824 15.3018C7.11621 15.3838 7.05469 15.4248 7.01367 15.4863C6.97266 15.5273 6.95215 15.5684 6.95215 15.5889C6.95215 15.6299 6.95215 15.6709 6.95215 15.6914C6.97266 15.7324 6.97266 15.7734 6.97266 15.8145C6.95215 15.8555 6.93164 15.917 6.89062 15.9785C6.84961 16.04 6.76758 16.1221 6.64453 16.2246C6.33691 16.5322 6.11133 16.9219 5.96777 17.3525C5.90625 17.4961 5.84473 17.6396 5.7832 17.7832C5.08594 19.1777 4.88086 20.3877 5.16797 21.4131C5.45508 22.4385 6.09082 23.4844 7.0957 24.5098C8.1416 25.5557 9.26953 26.499 10.5205 27.3193C11.7305 28.0986 12.9814 28.8164 14.2734 29.4932C15.5039 30.1494 16.7139 30.8467 17.8623 31.585C18.8262 32.3027 19.5029 33.041 19.8926 33.8203C20.3027 34.5996 20.4873 35.6045 20.4463 36.835C20.3643 37.9219 19.9336 38.7012 19.1748 39.1934C18.3955 39.665 17.5137 40.0342 16.5703 40.2803C16.3857 40.3418 16.1191 40.4238 15.75 40.5059C15.4014 40.5879 15.0527 40.6494 14.7041 40.6699C14.3555 40.6904 14.1094 40.6289 13.9658 40.5059C13.9043 40.4443 13.8838 40.4033 13.9043 40.3828C13.9248 40.3418 13.9863 40.3213 14.0684 40.2803C14.0889 40.2598 14.1299 40.2393 14.1504 40.2393C14.54 40.0752 15.0527 39.9316 15.6885 39.7881C16.1191 39.6855 16.5088 39.5625 16.8574 39.46C17.1035 39.3779 17.4521 39.2549 17.9033 39.0908C18.3545 38.9268 18.8057 38.7217 19.2158 38.5166C19.6465 38.291 19.9131 38.0859 20.0361 37.9014L20.0566 37.6963C19.9131 37.7168 19.7285 37.7988 19.5029 37.9014C19.2773 38.0244 19.0312 38.1475 18.8057 38.291C18.5186 38.4551 18.293 38.5781 18.0879 38.6602C16.1602 39.5625 14.4785 39.9727 13.0635 39.9316C11.6484 39.8906 9.9873 39.6035 8.05957 39.0703C7.17773 38.8037 6.17285 38.373 5.06543 37.7373C3.9375 37.1016 3.07617 36.4658 2.46094 35.7891C2.78906 36.4248 3.21973 36.9785 3.79395 37.4502C4.36816 37.9424 4.96289 38.3525 5.57812 38.7422C5.7627 38.8447 5.88574 38.9473 5.94727 39.0293C6.0293 39.1318 6.00879 39.1934 5.88574 39.2344C4.16309 38.5781 2.76855 37.5527 1.66113 36.1582C0.553711 34.7637 0.266602 33.1641 0.799805 31.4004C0.963867 30.9492 1.10742 30.7236 1.23047 30.6826C1.35352 30.6416 1.45605 30.7236 1.53809 30.9287C1.64062 31.1133 1.72266 31.3594 1.78418 31.626C1.8457 31.8311 1.92773 32.0156 1.98926 32.1797C2.58398 33.4102 3.56836 34.374 4.88086 35.0303C6.21387 35.6865 7.54688 36.2197 8.85938 36.5889C10.0898 36.9375 11.1973 37.1631 12.1816 37.2451C13.166 37.3477 14.3145 37.3066 15.6064 37.1221C16.0166 37.0811 16.5088 36.999 17.083 36.8555C17.6367 36.7119 18.1084 36.4863 18.457 36.1787C18.8057 35.8506 18.8672 35.3994 18.6416 34.8047C18.3545 34.251 17.8008 33.6973 17.001 33.1846C16.2012 32.6719 15.4424 32.2207 14.7041 31.8516C14.458 31.708 14.2324 31.6055 14.0479 31.4824L13.8428 31.3799L13.6582 31.2568C13.084 30.9082 12.4688 30.6006 11.833 30.3135C11.5869 30.1904 11.3818 30.0674 11.2178 29.9443C11.0537 29.8008 10.9102 29.6572 10.7871 29.5137C10.6025 29.2676 10.3154 29.042 9.9668 28.7754ZM4.42969 16.3271C4.4707 15.917 4.42969 15.7529 4.30664 15.8145C4.18359 15.876 4.04004 16.0811 3.91699 16.4092C3.79395 16.7168 3.6709 16.9834 3.56836 17.209C3.4248 17.5371 3.30176 17.8652 3.19922 18.1934C3.11719 18.5215 3.07617 18.9521 3.07617 19.5059C3.1377 20.5107 3.30176 20.5312 3.56836 19.5469C3.65039 19.1982 3.69141 18.8906 3.73242 18.624C3.79395 18.3164 3.85547 18.0088 3.9375 17.7217C3.99902 17.4141 4.14258 17.0449 4.32715 16.6143L4.42969 16.3271ZM5.10645 15.1992C5.14746 15.0762 5.12695 14.9941 5.06543 14.9121C5.00391 14.8506 4.92188 14.7891 4.81934 14.7891C4.7373 14.7686 4.65527 14.7891 4.61426 14.8506C4.55273 14.9121 4.55273 14.9941 4.61426 15.1377C4.67578 15.2607 4.7373 15.3428 4.83984 15.3633C4.92188 15.3838 5.02441 15.3223 5.10645 15.1992ZM5.84473 13.8867C5.7832 13.7637 5.74219 13.7021 5.66016 13.7021C5.57812 13.7227 5.5166 13.7432 5.47559 13.8252C5.41406 13.8867 5.39355 13.9688 5.41406 14.0508C5.43457 14.1328 5.5166 14.1943 5.66016 14.2559C5.74219 14.2764 5.7832 14.2559 5.82422 14.2148C5.84473 14.1738 5.86523 14.1123 5.86523 14.0508C5.86523 13.9893 5.84473 13.9277 5.84473 13.8867ZM6.35742 13.2305C6.2959 13.292 6.27539 13.3535 6.2959 13.4355C6.2959 13.5381 6.33691 13.5996 6.39844 13.6611C6.43945 13.7432 6.50098 13.7637 6.54199 13.7637C6.60352 13.7637 6.64453 13.7021 6.66504 13.5791C6.68555 13.4766 6.64453 13.3945 6.60352 13.3125C6.54199 13.251 6.45996 13.21 6.35742 13.2305ZM7.85449 12.6152C7.95703 12.6973 8.03906 12.6973 8.12109 12.6152C8.20312 12.5332 8.24414 12.4102 8.26465 12.2666C8.30566 12.1436 8.28516 12 8.24414 11.8975C8.18262 11.7949 8.08008 11.7539 7.93652 11.7744C7.79297 11.8154 7.71094 11.877 7.69043 11.9795C7.66992 12.082 7.66992 12.2051 7.71094 12.3076C7.75195 12.4307 7.79297 12.5332 7.85449 12.6152ZM8.3877 11.1387C8.30566 11.2207 8.26465 11.3232 8.26465 11.4258C8.28516 11.5488 8.30566 11.6309 8.34668 11.6924C8.3877 11.7539 8.44922 11.7744 8.49023 11.7334C8.55176 11.6924 8.59277 11.5693 8.61328 11.3848C8.61328 11.3232 8.61328 11.2617 8.61328 11.2207C8.59277 11.1592 8.57227 11.1182 8.53125 11.0977C8.51074 11.0771 8.44922 11.0771 8.3877 11.1387ZM19.3077 48.0322H19.2462C19.1846 48.0322 19.1231 48.0117 19.0821 47.9912C19.0206 47.9502 19.0001 47.9092 18.9796 47.8477C18.9591 47.8066 18.9386 47.7656 18.918 47.7041C18.918 47.6426 18.8975 47.6016 18.877 47.5811C18.8565 47.5605 18.8565 47.54 18.836 47.54L18.7745 47.5605C18.6925 47.6221 18.6309 47.6631 18.5489 47.6631C18.4874 47.6631 18.4259 47.6221 18.3438 47.5195C18.2618 47.417 18.1798 47.335 18.0772 47.2529C17.8927 47.1094 17.7491 46.9863 17.6876 46.8838C17.544 46.6787 17.462 46.3711 17.421 45.9199C17.421 45.0996 17.6466 43.8896 18.0977 42.3105C18.2003 42.0029 18.3028 41.6338 18.4259 41.2031C19.4307 37.9219 20.0665 35.8301 20.3331 34.9072C20.4971 34.3945 20.5587 34.1279 20.5587 34.0664C20.5587 34.0254 20.5997 33.8613 20.7022 33.5742C21.1329 32.3848 21.338 31.749 21.338 31.6465C21.3175 31.5439 21.379 31.2979 21.5225 30.9082C21.7071 30.375 21.9942 29.4727 22.3634 28.2012L23.3888 25.2275C23.7784 24.1816 24.0655 23.4844 24.1886 23.1562C24.2911 22.9102 24.3731 22.6436 24.4141 22.3564C24.5167 21.9668 24.6192 21.6182 24.7423 21.3516C24.9268 21.0439 25.1729 20.8594 25.4805 20.8184C25.8292 20.8184 26.1368 20.9004 26.3829 21.0645C26.6495 21.208 26.8546 21.4541 27.0186 21.7412L27.2237 22.0283C27.2647 22.0488 27.2852 22.0898 27.2852 22.1104V22.1514C27.2852 22.1719 27.2647 22.2129 27.2442 22.2334C27.2237 22.2539 27.2032 22.2744 27.2032 22.2949C27.1827 22.3154 27.1622 22.3975 27.1007 22.541C27.1212 22.5615 27.1417 22.582 27.1827 22.582L27.4903 22.5L27.8389 22.3359C28.1466 22.1924 28.4542 22.0693 28.7823 21.9463C29.0899 21.8232 29.3565 21.7617 29.5616 21.7617C29.7667 21.8232 29.9307 21.8438 30.0743 21.8438C30.4434 21.8438 30.9151 22.0078 31.5304 22.3154C32.5352 22.8896 33.2735 23.7715 33.7452 24.9404L33.8888 25.1865C34.0733 25.5762 34.2784 25.7607 34.4835 25.7607H34.6475C34.7501 25.7607 34.9346 25.6787 35.2218 25.4941C35.6524 25.2686 36.1651 25.043 36.7598 24.7969L36.9034 24.7354L36.9444 24.8379C36.9649 24.7354 36.9649 24.6533 36.9854 24.6123C36.9854 24.5713 36.9854 24.5508 37.0059 24.5303L37.0264 24.6328C37.0264 24.6533 37.047 24.6738 37.047 24.6943C37.047 24.7148 37.047 24.7354 37.0675 24.7559H37.088C37.088 24.7148 37.1085 24.6533 37.129 24.5713L37.1905 24.5918C37.252 24.5918 37.293 24.5713 37.3341 24.5508C37.3751 24.5303 37.4366 24.4893 37.4981 24.4482C37.8057 24.1611 38.1134 23.9971 38.4005 23.9355C38.585 23.874 38.7491 23.792 38.9337 23.6689C38.9952 23.6279 39.0362 23.6074 39.0772 23.5869C39.1388 23.5869 39.1798 23.6074 39.2208 23.6279C38.7901 24.2637 38.2364 24.7559 37.5596 25.0635C37.4776 25.1045 37.3751 25.1455 37.3136 25.207C36.9649 25.3916 36.6163 25.5762 36.2882 25.7402C35.796 25.9658 35.3038 26.2324 34.8116 26.54C35.2833 26.417 35.6934 26.2734 36.0216 26.1299C36.3702 25.9863 36.9239 25.7197 37.7237 25.3096C37.9083 25.2275 38.0723 25.1865 38.2364 25.1865C37.4571 25.9453 36.5753 26.6016 35.5499 27.1553L34.9962 27.4834L34.5245 27.7295C34.2169 27.9141 34.0733 28.0781 34.0733 28.2012C34.0938 28.2627 34.1143 28.3037 34.1348 28.3652C34.1759 28.4062 34.1964 28.4678 34.2169 28.5703C34.2169 28.6729 34.1554 28.7754 33.9913 28.9189C33.8477 29.0625 33.7862 29.1855 33.7862 29.2676L33.7042 29.5957C33.4171 30.3135 33.0274 30.9492 32.5557 31.5234C32.1456 31.9951 31.9405 32.2822 31.9405 32.3643H31.961C32.0636 32.3643 32.3507 32.2002 32.8018 31.8516L32.3917 32.2617C32.1661 32.4668 32.002 32.5693 31.8585 32.5693C31.8175 32.5693 31.7764 32.5693 31.7354 32.5488C31.7149 32.5283 31.6739 32.5283 31.6329 32.5283C31.5304 32.5283 31.4483 32.5898 31.3458 32.7129C31.2432 32.8564 30.9561 32.959 30.4434 33.0205C30.1973 33.0615 29.9513 33.082 29.7052 33.082C29.0079 33.082 28.3106 32.918 27.6339 32.6104C27.1622 32.3848 26.8341 32.1387 26.629 31.8311C26.4854 31.6055 26.3829 31.3184 26.3624 30.9492V30.6006C26.3829 30.1904 26.629 29.7393 27.0391 29.2881C27.6749 28.6113 28.7208 27.9756 30.2179 27.3809L32.0225 26.54C31.961 25.4736 31.6534 24.7764 31.1407 24.4277C30.9561 24.3662 30.7716 24.3252 30.5665 24.3252C29.9307 24.3252 29.418 24.4893 29.0489 24.8174L27.9005 26.0068C27.2852 26.6016 26.9366 26.9092 26.8751 26.9092C26.8546 26.9092 26.8546 26.9092 26.8546 26.8887C26.8546 26.8682 26.8341 26.8682 26.8341 26.8682C26.793 26.8682 26.6495 26.9912 26.4444 27.2168C25.9727 27.791 25.6856 28.1807 25.6036 28.3857C25.337 28.7139 25.2139 29.001 25.2345 29.2471L25.255 29.3086C25.255 29.3701 25.2345 29.4111 25.1729 29.4316C24.9679 29.6367 24.6807 30.2314 24.3116 31.1953C24.0245 31.9131 23.8194 32.5078 23.6759 32.9795C23.5938 33.3486 23.4093 33.9434 23.1427 34.7842L22.7735 36.1172C22.5684 36.8555 22.4454 37.2451 22.3839 37.3271C22.3223 37.4092 21.9737 38.5781 21.3175 40.834C21.297 41.0801 21.2354 41.3057 21.1124 41.5312C20.9893 41.9004 20.9073 42.167 20.8663 42.3311C20.8253 42.5771 20.7432 42.8643 20.6407 43.1924C20.5792 43.418 20.5382 43.582 20.5382 43.6846L20.5792 43.7461C20.6612 43.7461 20.7843 43.582 20.9278 43.2744C21.0714 42.9668 21.2354 42.7207 21.379 42.5361C21.543 42.4131 21.6046 42.29 21.6046 42.208C21.6046 41.9619 21.6866 41.8389 21.8302 41.8389C21.8712 41.8389 21.9122 41.8799 21.9122 41.9619C21.9122 42.1055 21.8712 42.3516 21.7481 42.7412C21.6456 43.1309 21.5636 43.623 21.5225 44.1973C21.4815 44.5664 21.379 45.0176 21.2354 45.5713C21.0919 46.125 20.9278 46.5557 20.7432 46.8633C20.4971 47.4375 20.087 47.8271 19.5333 48.0117C19.4513 48.0322 19.3897 48.0322 19.3077 48.0322ZM22.2403 36.3018C22.2403 36.3018 22.2813 36.2812 22.3429 36.2402C22.4044 36.1787 22.4454 36.1172 22.4864 36.0352C22.5069 35.9736 22.5274 35.8916 22.5069 35.8096C22.5069 35.6865 22.5069 35.625 22.4864 35.625C22.4864 35.625 22.4659 35.666 22.4659 35.7686C22.4454 35.8506 22.4249 35.9326 22.4044 35.9941C22.3634 36.0762 22.3429 36.1377 22.2813 36.1992C22.2403 36.2607 22.2198 36.3018 22.2403 36.3018ZM19.6358 44.2178C19.6973 44.2178 19.7589 43.9922 19.8819 43.5615C19.9845 43.1309 20.0255 42.9053 20.0255 42.8643C20.0255 42.8232 20.0665 42.6592 20.1485 42.4131C20.2305 42.167 20.2716 41.9414 20.2921 41.7363C20.2716 41.5107 20.3126 41.4082 20.3741 41.3877C20.4561 41.3672 21.0509 39.4395 22.1993 35.6045C22.4044 34.8047 22.5069 34.292 22.4864 34.0459C22.4864 33.9844 22.4864 33.9229 22.4659 33.8818C22.4044 33.7793 22.3634 33.7178 22.3429 33.7178C22.3018 33.7178 22.2608 33.8203 22.1788 34.0459C22.0763 34.3125 22.0352 34.5996 22.0557 34.9072L22.0763 34.9893C22.0968 35.2354 22.0352 35.4199 21.9122 35.502C21.8096 35.5635 21.7481 35.666 21.7481 35.748L21.9122 35.7275C21.9327 35.7275 21.9532 35.748 21.9532 35.7891C21.9532 35.8711 21.9327 35.9941 21.8712 36.1377C21.8302 36.2812 21.7686 36.3633 21.7276 36.3633C21.7276 36.3633 21.7071 36.3428 21.7071 36.3223L21.7481 36.1172C21.7481 36.0557 21.7276 36.0146 21.6866 36.0146C21.6456 36.0146 21.6251 36.0352 21.5841 36.0762C21.5636 36.1377 21.543 36.1992 21.543 36.2607C21.5225 36.3428 21.502 36.4248 21.4815 36.5273C21.461 36.6299 21.4405 36.7119 21.42 36.7734C21.379 36.8555 21.379 36.8965 21.379 36.9375C21.3995 36.9375 21.4405 36.8965 21.5225 36.7939C21.5841 36.7119 21.6251 36.6504 21.6456 36.6504C21.6661 36.6504 21.6866 36.6709 21.6866 36.7119C21.6866 36.8145 21.6456 36.9785 21.543 37.2041C21.502 37.3271 21.461 37.3887 21.42 37.3887C21.3995 37.3887 21.3995 37.3887 21.3995 37.3477C21.3995 37.3271 21.379 37.3066 21.379 37.3066C21.2559 37.3066 20.7843 38.7832 19.9229 41.7158C19.7589 42.3721 19.6563 42.7412 19.5948 42.8438C19.5538 42.9463 19.5333 43.0283 19.5538 43.0898C19.5538 43.1514 19.5743 43.2129 19.6358 43.2334C19.6768 43.2744 19.7179 43.3359 19.7179 43.418C19.7179 43.5 19.7179 43.6025 19.6973 43.7256C19.6768 43.8486 19.6563 43.9512 19.6358 44.0127C19.6153 44.0742 19.6153 44.1357 19.6153 44.1562L19.5948 44.1768C19.5948 44.1973 19.6153 44.2178 19.6358 44.2178ZM22.753 35.0303C22.753 35.0303 22.7735 35.0098 22.8145 34.9482C22.835 34.8867 22.8761 34.8047 22.8966 34.7021C22.9171 34.6201 22.9376 34.5381 22.9581 34.4561L23.0196 34.1689C22.8555 34.4766 22.7735 34.6816 22.753 34.7432C22.712 34.8252 22.712 34.8867 22.712 34.9893C22.7325 35.0303 22.7325 35.0303 22.753 35.0303ZM23.2452 31.1133C23.2452 31.1133 23.2862 31.0928 23.3067 31.0518C23.3477 31.0107 23.3682 30.9902 23.3682 30.9697C23.3682 30.9082 23.3272 30.8877 23.2862 30.8877C23.2247 30.8877 23.1837 30.9492 23.1837 31.0312C23.1837 31.0928 23.2042 31.1133 23.2452 31.1133ZM23.8194 31.667C23.8604 31.667 23.8809 31.585 23.8604 31.4414C23.8604 31.3799 23.8399 31.3389 23.7989 31.3389C23.7784 31.3389 23.7579 31.3389 23.7374 31.3594C23.6964 31.3799 23.6964 31.4209 23.6964 31.4824V31.5439C23.7579 31.626 23.7989 31.667 23.8194 31.667ZM27.9005 23.1768C28.003 23.1768 28.1671 23.0947 28.3721 22.9307C28.5977 22.7666 28.7413 22.6846 28.8233 22.6846H28.8643C28.9464 22.6846 28.9874 22.6436 28.9669 22.5615C28.9669 22.5 28.9464 22.459 28.9259 22.459C28.9054 22.459 28.8848 22.4795 28.8643 22.4795C28.8438 22.5 28.7823 22.5205 28.6798 22.5615C28.5567 22.623 28.4337 22.6641 28.2901 22.7256C28.1466 22.7871 28.0235 22.8281 27.921 22.8896C27.8184 22.9512 27.7774 23.0127 27.7774 23.0537C27.7979 23.1357 27.8389 23.1768 27.9005 23.1768ZM28.8438 30.3545C28.8848 30.3545 28.9464 30.334 29.0489 30.293L29.1925 30.2314C29.7052 30.0469 30.1973 29.6982 30.6895 29.1855C30.8331 29.042 30.8946 28.9395 30.8946 28.8984C30.8946 28.8164 30.8331 28.7959 30.7305 28.7959C30.628 28.7959 30.4845 28.8369 30.3204 28.9395C30.2384 29.001 29.9718 29.165 29.5411 29.4111L29.1104 29.6367C28.7618 29.8418 28.5977 30.0264 28.6182 30.1699C28.6182 30.293 28.6798 30.3545 28.7823 30.3545H28.8438ZM29.8077 32.5283C30.0128 32.5283 30.1973 32.5078 30.4024 32.4873C30.587 32.4463 30.7716 32.3848 30.9561 32.2822C31.1612 32.2002 31.3253 32.1182 31.4688 32.0361C31.6124 31.9541 31.7149 31.8926 31.7559 31.8721C31.9405 31.7285 32.1456 31.4824 32.3712 31.1338C32.6173 30.8057 32.8429 30.4775 33.0274 30.1494C33.212 29.8213 33.3145 29.5957 33.3145 29.4727C33.3145 29.4316 33.294 29.4316 33.253 29.4316C33.1095 29.4316 33.0069 29.5137 32.9454 29.7188C32.9044 29.8213 32.7813 30.0059 32.5557 30.2725C31.9815 30.9287 31.5098 31.3799 31.1612 31.6465C30.505 32.0361 29.9307 32.2412 29.418 32.2412L29.213 32.2207C28.8848 32.2207 28.7208 32.2822 28.7208 32.3643C28.7413 32.4258 29.0284 32.4873 29.6026 32.5283H29.8077ZM37.7442 25.2686C37.8057 25.2275 37.9698 25.166 38.2364 25.1045L38.4415 25.0635L38.544 25.084C38.421 25.1045 38.3184 25.1045 38.2569 25.125C38.1749 25.1455 38.1134 25.166 38.0313 25.1865C37.9698 25.207 37.8673 25.2275 37.7852 25.248L37.7442 25.2686ZM43.3732 31.5234C43.2912 31.5234 43.2502 31.5029 43.2502 31.4209C43.2502 31.3184 43.2912 31.2773 43.3732 31.2773C43.4347 31.2773 43.4757 31.3184 43.4757 31.4004C43.4757 31.4824 43.4347 31.5234 43.3732 31.5234ZM39.4152 34.1484H39.3742C38.882 34.1484 38.3693 33.9639 37.7951 33.5742C36.7902 32.7949 36.2775 31.749 36.2775 30.4365C36.339 29.2471 36.7492 27.7295 37.5285 25.9043C38.1642 24.4072 38.7795 23.3408 39.4152 22.6641C40.215 21.9463 41.0148 21.5771 41.7941 21.5771C42.0607 21.5771 42.3683 21.6182 42.717 21.7412C42.9425 21.8232 43.1066 21.8643 43.2502 21.8643C43.3527 21.8643 43.4757 21.8232 43.5988 21.7412C43.7423 21.6592 43.8654 21.6182 43.9474 21.6182C44.173 21.6182 44.4806 21.7617 44.8908 22.0283C45.1574 22.2334 45.3625 22.377 45.506 22.4385C45.8341 22.623 46.0187 22.9717 46.0597 23.4434C46.0597 23.6074 46.0802 23.7305 46.1418 23.792C46.2443 24.0586 46.3058 24.3662 46.3263 24.7764C46.3263 24.9814 46.3263 25.1865 46.3058 25.3711C46.2853 25.5557 46.2853 25.7812 46.2648 26.0479C46.2648 26.2529 46.3879 26.335 46.6134 26.335C46.9211 26.335 47.1056 26.2939 47.1671 26.2324C47.8439 26.0068 48.4181 25.7607 48.9308 25.4736C49.4435 25.1865 50.1818 24.7559 51.1662 24.2227C51.2892 23.9971 51.6379 23.8125 52.2326 23.7305C52.0685 24.0586 51.8839 24.3047 51.6584 24.5098C51.5763 24.5918 51.4533 24.7354 51.3097 24.8994C51.1457 25.084 50.8791 25.2686 50.5099 25.4531C50.1613 25.6377 49.7511 25.9043 49.3 26.2324C49.4435 26.2324 49.8537 26.0479 50.4894 25.6992C50.8791 25.4941 51.1252 25.3916 51.1867 25.3916C51.1867 25.4326 50.9201 25.6377 50.4074 25.9863C50.3048 26.0479 50.2433 26.0889 50.2228 26.1094C50.2023 26.1504 49.6691 26.458 48.6642 27.0732C48.1515 27.3809 47.6388 27.6064 47.1056 27.75C47.0851 27.75 46.9416 27.8115 46.6545 27.873C46.3468 27.9551 46.2033 28.0166 46.2033 28.0781C46.2033 28.1191 46.3673 28.1602 46.716 28.2012C47.4748 28.1191 48.1925 27.8936 48.8283 27.4834L49.8947 27.0117L49.7716 27.0938C49.2795 27.5859 48.7463 27.9961 48.1515 28.3447C47.967 28.4268 47.6593 28.5293 47.2287 28.6318C46.4904 28.8164 45.9162 28.8984 45.5265 28.8984C45.3009 28.8984 45.1574 28.8779 45.0548 28.8164C45.0138 28.6934 44.9523 28.6318 44.9113 28.6318C44.8498 28.6318 44.8088 28.7344 44.7677 28.9189C44.6857 29.165 44.6037 29.2881 44.5216 29.2881C44.4396 29.3086 44.3986 29.3701 44.3986 29.4932C44.3986 29.6162 44.3576 29.6777 44.2961 29.6777C44.2345 29.6982 44.091 29.8828 43.9064 30.252C43.7013 30.6006 43.4142 30.9697 43.0451 31.3184C42.717 31.626 42.5529 31.8105 42.5529 31.9131C42.5529 31.9541 42.5734 31.9746 42.6349 31.9746L42.799 31.9541C42.8195 31.9541 42.8195 31.9541 42.8195 31.9746C42.8195 32.0361 42.7375 32.1797 42.5529 32.4053C42.3068 32.6924 42.1427 32.8154 42.0812 32.8154C42.0607 32.8154 42.0607 32.8154 42.0607 32.7949C42.0607 32.7744 42.1222 32.6719 42.2658 32.5078C42.3478 32.3848 42.3888 32.3232 42.3888 32.2822C42.3888 32.2617 42.3888 32.2617 42.3683 32.2617C42.3068 32.2617 42.2043 32.3232 42.0402 32.4668C41.8556 32.6104 41.7736 32.7334 41.7736 32.8564C41.7736 33.041 41.6095 33.2256 41.3019 33.4307C40.9943 33.6152 40.6457 33.7793 40.2765 33.9229C39.8869 34.0664 39.5998 34.1279 39.4152 34.1484ZM38.6769 31.6465C38.9025 31.6465 39.2511 31.4209 39.7433 31.0312C40.133 30.7031 40.5636 30.2725 41.0558 29.6777C41.548 29.083 41.9787 28.5293 42.3478 27.9756C42.717 27.4424 42.9015 27.0527 42.922 26.8682C42.922 26.7451 42.8605 26.6016 42.7375 26.4375C42.5939 26.2529 42.4709 25.9863 42.3683 25.6377C42.2658 25.2891 42.1838 24.9814 42.1632 24.6943L42.1838 24.6123C42.1838 24.4072 42.1427 24.3047 42.0607 24.3047C41.9582 24.3047 41.8146 24.4072 41.63 24.5918C41.4455 24.7764 41.2814 24.8994 41.1173 24.9199C40.9533 24.9609 40.8097 25.125 40.6662 25.4326C40.5226 25.7402 40.3586 25.9863 40.215 26.1709C40.0509 26.3555 39.9689 26.5195 39.9689 26.6631C39.9689 26.8066 39.9279 26.9092 39.8459 26.9707C39.7433 27.0117 39.5998 27.3398 39.3947 27.9551C39.0461 28.9805 38.7795 29.8418 38.5949 30.5186C38.5334 30.7031 38.4923 30.8262 38.4718 30.9082C38.4513 30.9902 38.4308 31.0928 38.4308 31.1953C38.4308 31.5029 38.5129 31.6465 38.6564 31.6465H38.6769ZM39.9689 33.4717C40.0304 33.4717 40.1535 33.4307 40.297 33.3486C40.8918 33.082 41.589 32.4873 42.3888 31.6055C42.963 30.9902 43.4347 30.375 43.8039 29.7803C44.1525 29.1855 44.3576 28.8574 44.3781 28.8369C44.4806 28.7959 44.5216 28.7139 44.5216 28.5908C44.5216 28.4883 44.4806 28.4268 44.4191 28.4268C44.3576 28.4268 44.173 28.6523 43.8654 29.124C43.3322 29.9033 42.7375 30.6621 42.0812 31.3594C41.4045 32.0566 40.8302 32.5488 40.338 32.8359C39.9279 33.0615 39.7228 33.2256 39.7228 33.3691C39.7228 33.4307 39.8048 33.4717 39.9689 33.4717ZM45.1779 25.9863L45.1984 25.9248C45.4035 25.5352 45.4855 25.248 45.4855 25.084C45.4855 25.002 45.4855 24.9609 45.4445 24.9404C45.4035 24.9814 45.342 25.0635 45.3009 25.207C45.2599 25.3506 45.2189 25.4941 45.1984 25.6582C45.1779 25.8018 45.1779 25.9248 45.1779 25.9863ZM46.0187 25.9658C46.1007 25.9453 46.1418 25.8633 46.1418 25.7402C46.1418 25.5967 46.1213 25.5352 46.0802 25.5146C46.0392 25.5146 45.9982 25.5557 45.9572 25.6582L45.9367 25.8018C45.9367 25.8838 45.9572 25.9453 46.0187 25.9658ZM46.1007 25.084C46.1418 25.084 46.1623 25.043 46.1623 24.9609C46.1623 24.9404 46.1623 24.9199 46.1418 24.8789C46.1418 24.8584 46.1007 24.8379 46.0597 24.8379C45.9982 24.8379 45.9777 24.8994 45.9777 24.9814C45.9777 25.043 46.0187 25.0635 46.1007 25.084ZM51.4943 25.3506C51.4738 25.3506 51.4533 25.3506 51.4533 25.3301C51.4533 25.2891 51.5148 25.1865 51.5968 25.043C51.7609 24.7969 51.9045 24.6328 52.048 24.5098C52.1916 24.3867 52.3351 24.2432 52.4582 24.0586C52.6017 23.874 52.7453 23.7715 52.9093 23.751C52.6838 24.2432 52.2736 24.7148 51.6994 25.207L51.4943 25.3506ZM51.0226 26.335C51.0021 26.335 50.9816 26.335 50.9816 26.3145C50.9816 26.2119 51.0636 26.1709 51.2482 26.1504C51.2482 26.1709 51.2482 26.1914 51.2277 26.1914C51.2277 26.1914 51.2277 26.1914 51.2277 26.2119C51.2277 26.2119 51.2072 26.2119 51.2072 26.2324L51.0226 26.335ZM52.4377 23.6895H52.3966C52.3761 23.6895 52.3556 23.6484 52.3556 23.5869C52.3556 23.5459 52.3966 23.5049 52.4787 23.4434C52.5402 23.4639 52.5812 23.4844 52.6017 23.5254C52.6017 23.6279 52.5402 23.6895 52.4377 23.6895ZM50.0588 26.7246L49.9972 26.7451C49.9767 26.7451 49.9562 26.7246 49.9562 26.7041C49.9562 26.6836 50.0177 26.6631 50.1613 26.6221C50.2228 26.6221 50.2638 26.6221 50.2638 26.6426C50.2638 26.6836 50.2023 26.7246 50.0588 26.7246ZM50.4377 33.4922C49.7405 33.4922 49.0842 33.2666 48.4895 32.8154C48.3459 32.6514 48.2639 32.4873 48.2434 32.3027C48.2229 32.1182 48.2844 31.79 48.4485 31.3184L49.6174 28.1807L50.0891 26.8887C50.7043 25.043 51.1145 23.6895 51.3196 22.8281C51.3811 22.4795 51.4836 22.2334 51.6272 22.0898C51.7707 21.9463 52.0784 21.8643 52.55 21.8643C53.4524 21.8643 54.0676 22.1104 54.4162 22.6025C54.4368 22.6436 54.4368 22.6846 54.4573 22.7256C54.4778 22.8691 54.4573 23.0332 54.4162 23.1973L54.3752 23.3818L54.3957 23.5254C54.4778 23.5254 54.5393 23.5049 54.5598 23.5049C54.6008 23.4844 54.6213 23.4639 54.6213 23.4639L54.8059 23.4023L55.2571 23.2178C55.6057 23.0127 55.9748 22.8281 56.3235 22.6641C56.8157 22.4385 57.3078 22.2129 57.8205 21.9668C58.1897 21.7822 58.5588 21.7002 58.928 21.7002C59.8098 21.8027 60.2815 22.2539 60.3225 23.0537C60.343 23.2178 60.343 23.3818 60.3225 23.5254C60.1584 24.9199 59.8508 25.4736 59.3791 25.1865L59.3996 25.1455C59.4407 24.9404 59.4817 24.8174 59.4612 24.7354C59.4407 24.6533 59.3586 24.6123 59.1946 24.6328C58.8254 24.6328 58.4768 24.6943 58.1282 24.8174C57.759 24.9609 57.4104 25.1045 57.0412 25.2891C56.6926 25.4531 56.385 25.6172 56.1594 25.7812L56.1184 25.8018C55.7903 25.9863 55.6057 26.1504 55.5237 26.2529C55.4827 26.335 55.4211 26.3965 55.3391 26.4375C55.175 26.458 54.9495 26.6631 54.6418 27.0117L53.9241 27.668C53.5959 27.9756 53.2678 28.2832 52.9397 28.6113C52.7346 28.8164 52.5911 28.9395 52.4885 29.0215C52.345 29.1855 52.1809 29.4521 52.0373 29.8418C52.0168 29.9443 51.9553 30.1494 51.8733 30.4365C51.7912 30.7441 51.6887 31.0518 51.6067 31.3594C51.4836 32.0771 51.4221 32.4463 51.3811 32.4668C51.3401 32.5078 51.2991 32.5078 51.217 32.5078C51.217 32.5078 51.217 32.4873 51.1965 32.4873L51.176 32.5078V32.7129C51.176 33.2256 50.9094 33.4922 50.4377 33.4922ZM51.176 31.4824C51.1965 31.4824 51.217 31.4824 51.217 31.4619V31.4414C51.217 31.4209 51.1965 31.4004 51.176 31.3799C51.1555 31.3389 51.135 31.3389 51.1145 31.3389C51.094 31.3389 51.0735 31.3594 51.0735 31.3594C51.053 31.3799 51.053 31.4004 51.053 31.4004C51.053 31.4619 51.094 31.4824 51.176 31.4824ZM52.9602 27.3809C52.9807 27.3809 53.0217 27.3398 53.0832 27.2783C53.1448 27.1963 53.1858 27.1348 53.1653 27.0938C53.1653 27.0732 53.1653 27.0527 53.1243 27.0527C53.1243 27.0527 53.0832 27.0732 53.0627 27.0938C53.0422 27.1143 53.0217 27.1758 52.9807 27.2373C52.9602 27.2988 52.9397 27.3398 52.9602 27.3604V27.3809ZM53.4524 26.9297L53.7395 26.7861C53.9241 26.7246 54.0881 26.6221 54.2317 26.458C54.3547 26.3555 54.6623 26.0889 55.2161 25.6992C55.7493 25.3096 56.0159 25.1045 56.0569 25.1045C56.0774 25.1045 56.467 24.8994 57.1848 24.4893C57.8205 24.1611 58.4563 23.8535 59.092 23.5459C59.3791 23.4023 59.5022 23.2998 59.5022 23.2588C59.5022 23.2383 59.4612 23.2178 59.3996 23.2178C59.2766 23.2178 59.0715 23.2793 58.7639 23.4023C58.6203 23.4434 58.4973 23.5049 58.3743 23.5459C58.0666 23.71 57.8821 23.792 57.7795 23.792C57.6975 23.792 57.4514 23.915 57.0412 24.1816C56.8772 24.3047 56.6516 24.4482 56.3645 24.6123C56.0979 24.7764 55.8518 24.9199 55.6262 25.0635C55.4211 25.207 55.1955 25.3506 54.9905 25.4736C54.7854 25.6172 54.6418 25.7197 54.5393 25.7812C54.3752 25.9248 54.2112 26.0684 54.0471 26.1914C53.883 26.335 53.678 26.5605 53.4524 26.9297ZM64.7005 38.9062C64.5159 38.9062 64.2288 38.8242 63.8802 38.6807C62.5472 37.9629 61.6859 36.6504 61.3167 34.7637C61.0706 33.9639 60.9476 33 60.9476 31.8721C60.9476 31.2773 60.9886 30.6211 61.0501 29.9033C61.4193 27.6064 62.0345 25.248 62.9163 22.8486L64.1263 19.7314C64.1468 19.5879 64.1878 19.4443 64.2493 19.3008L61.8294 19.6084C61.1732 19.6084 60.7425 19.5264 60.5374 19.3418C60.4964 19.3213 60.4759 19.2803 60.4759 19.2598C60.4759 19.2188 60.5374 19.1777 60.64 19.1367C60.7425 19.0957 60.7835 19.0752 60.804 19.0752L60.763 19.0547H59.6966C59.553 19.0342 59.43 18.9727 59.3685 18.8701C59.3685 18.8086 59.512 18.7471 59.7786 18.665C59.7786 18.624 59.4915 18.542 58.9173 18.3984C58.8558 18.3984 58.7943 18.3779 58.7122 18.3574C58.4456 18.2959 57.9945 18.2549 57.3997 18.2549C56.4359 18.2549 55.9027 18.0498 55.8001 17.6191V17.5986C55.8001 17.4756 55.9847 17.4141 56.3333 17.4141C56.3743 17.4141 56.4154 17.4141 56.4359 17.3936L56.7025 17.373L56.9486 17.3936C57.1331 17.3936 57.5433 17.373 58.179 17.3115C58.4456 17.2705 59.4505 17.1885 61.1937 17.0859C63.6136 16.9424 64.9261 16.7783 65.1722 16.6348C65.3568 16.3271 65.6029 15.7324 65.9105 14.8711L67.2435 11.959C67.4075 11.6719 67.5511 11.3643 67.6946 11.0361C67.9202 10.4209 68.2484 10.1133 68.6995 10.1133C69.0071 10.1133 69.3558 10.2568 69.7454 10.5234C70.0736 10.708 70.2581 10.9131 70.2786 11.1797C70.2786 11.2822 70.2786 11.3643 70.2581 11.4258L70.2376 11.7949C70.2786 12.041 70.4222 12.2461 70.7093 12.4102C70.8939 12.5127 70.9964 12.6357 70.9964 12.7588C70.9964 13.0254 70.8529 13.333 70.5657 13.7227C70.2991 14.1123 70.012 14.625 69.6839 15.2402C69.4173 15.7324 69.2327 16.0811 69.1302 16.3066C70.3607 16.1221 72.0218 16.0195 74.1341 15.999C76.2464 15.9785 77.5589 16.1836 78.0921 16.6348C78.0511 16.6553 78.0101 16.6553 77.9486 16.6553C77.887 16.6553 77.805 16.6553 77.723 16.6758C77.6204 16.6963 77.5589 16.6963 77.5179 16.7168C77.4769 16.7373 77.4564 16.7578 77.4564 16.7783C77.4769 16.8604 77.6204 16.9219 77.9075 16.9629C78.3382 17.0244 78.7484 17.373 79.138 17.9883C79.138 18.0498 79.1175 18.0908 79.056 18.1113C78.9945 18.1318 78.9739 18.1729 78.9739 18.2139L79.1995 18.3574C79.3226 18.3984 79.4046 18.4805 79.4251 18.6445C79.4251 18.7881 79.3841 18.8496 79.3021 18.8496C79.1995 18.8496 79.015 18.7881 78.7073 18.6855C78.3177 18.542 77.9486 18.4189 77.6409 18.3164C77.3128 18.2344 76.7181 18.1523 75.8568 18.0703C75.4261 18.0703 74.9954 18.0703 74.6058 18.0498C73.1497 18.0498 72.0218 18.1523 71.2015 18.3369C71.0374 18.3984 70.8734 18.4189 70.6888 18.4189C70.5452 18.3984 70.4632 18.3164 70.4017 18.1934L70.3402 18.1113C70.2786 18.1113 70.1966 18.1729 70.1146 18.3164C70.012 18.46 69.7454 18.542 69.2943 18.583C69.1507 18.583 68.638 18.6445 67.7562 18.7881V18.8906L67.8587 19.0752C67.8587 19.1572 67.7767 19.2803 67.6331 19.4443C67.5716 19.5059 67.5511 19.5469 67.5511 19.5674L67.5921 19.6084C67.5921 19.6904 67.4691 19.793 67.2435 19.8955C67.1614 19.957 67.1204 19.998 67.1204 20.0596V20.0801C66.7718 20.7979 66.6282 21.167 66.6693 21.2285C66.6898 21.29 66.7103 21.3516 66.7103 21.4131C66.7103 21.5156 66.6898 21.5771 66.6693 21.6387C66.5667 21.8232 66.4642 22.0898 66.3616 22.418C66.3001 22.6846 66.2386 22.9512 66.1361 23.1768C65.9925 23.5254 65.7259 23.6895 65.3363 23.6895H65.3157V23.71C65.5003 23.833 65.5823 23.9971 65.5823 24.2227C65.5823 24.5508 65.4593 24.7764 65.2132 24.8789C65.1517 24.8789 65.0902 24.7764 65.0696 24.5918C65.0491 24.4688 65.0286 24.4072 64.9876 24.4072C64.9671 24.4072 64.9261 24.4277 64.9056 24.4893C64.8646 24.5508 64.8441 24.6328 64.8236 24.7354C64.803 24.8379 64.7825 24.9404 64.7825 25.043C64.803 25.125 64.9056 25.1865 65.0902 25.248C65.2747 25.3096 65.4183 25.3916 65.4798 25.4531L65.4388 25.4941L65.0286 25.4531C64.9876 25.4531 64.9671 25.5352 64.9671 25.6787C64.9876 25.6992 65.0081 25.7402 65.0081 25.7812C65.0081 25.9043 64.9671 25.9863 64.9056 26.0273C64.8851 26.0273 64.8851 26.0273 64.8646 26.0068C64.8441 26.0068 64.803 25.9863 64.7415 25.9453C64.68 25.9043 64.6185 25.8838 64.557 25.8838C64.4749 25.8838 64.4339 25.9658 64.4339 26.1299C64.4339 26.3145 64.4749 26.417 64.5364 26.4375C64.598 26.4785 64.639 26.499 64.6595 26.5195C64.6595 26.6221 64.6595 26.7246 64.639 26.7861C64.6185 26.8477 64.5775 26.9502 64.5364 27.0938C64.4954 27.2373 64.4339 27.4014 64.3314 27.6064C64.2493 27.9346 64.2083 28.0986 64.2083 28.1191C64.1878 28.1396 64.1263 28.1807 63.9827 28.2422C63.9212 28.2627 63.8597 28.3242 63.7982 28.4062C63.6751 28.5498 63.6136 28.6729 63.6136 28.7754C63.6136 28.8369 63.6136 28.8779 63.6341 28.8779C63.6546 28.8779 63.7571 28.8164 63.9827 28.6729C64.0032 28.6729 64.0238 28.6934 64.0443 28.7549C64.0443 28.8984 64.0443 29.001 64.0238 29.083C63.9622 29.7188 63.8392 30.0879 63.6546 30.1904C63.5726 30.2314 63.4905 30.252 63.4085 30.252C63.4085 30.2725 63.388 30.293 63.388 30.3135C63.388 30.3545 63.429 30.3955 63.4905 30.4365C63.5931 30.5391 63.6546 30.6416 63.6751 30.7236C63.6751 30.8057 63.6546 30.8672 63.6136 30.9082C63.5726 30.9492 63.5316 30.9697 63.4905 30.9697V31.0928C63.388 32.2617 63.3265 33.1846 63.3265 33.8613C63.3265 34.0049 63.3265 34.2715 63.347 34.6611C63.3675 35.0508 63.47 35.543 63.6956 36.1172C63.8392 36.876 64.3314 37.7373 65.2132 38.7012C65.0491 38.8447 64.8851 38.9062 64.7005 38.9062ZM62.6702 31.3799C62.7113 31.3799 62.7113 31.3389 62.7113 31.2568C62.7113 31.1543 62.6907 31.0723 62.6497 31.0518C62.6292 31.0518 62.6087 31.0928 62.6087 31.1543C62.6292 31.2979 62.6497 31.3799 62.6702 31.3799ZM62.7933 30.4775C62.8138 30.4775 62.8548 30.3955 62.9163 30.2314L62.9779 29.7803C62.9779 29.7393 62.9779 29.7188 62.9573 29.7188C62.8343 29.7598 62.7933 29.9648 62.7933 30.3135V30.4775ZM63.1624 28.6523L63.1829 28.6318C63.2034 28.6113 63.2239 28.5498 63.2445 28.4473C63.265 28.3652 63.2855 28.2832 63.3265 28.1807C63.347 28.0781 63.3675 28.0166 63.3675 27.9551C63.3675 27.8936 63.388 27.873 63.4085 27.8525C63.47 27.5654 63.5111 27.3809 63.5111 27.2988L63.4905 27.2783C63.429 27.2783 63.3675 27.4014 63.2855 27.6475C63.2034 27.8936 63.1624 28.2012 63.1419 28.5908C63.1419 28.6318 63.1624 28.6523 63.1624 28.6523ZM64.639 23.3818C64.7005 23.3818 64.7415 23.3408 64.803 23.2588C64.8646 23.1768 64.8851 23.1152 64.8851 23.0537C64.8851 23.0332 64.8851 23.0127 64.8646 22.9922C64.8441 22.9922 64.803 23.0127 64.762 23.0537C64.6595 23.1562 64.6185 23.2588 64.6185 23.3408C64.6185 23.3613 64.6185 23.3818 64.639 23.3818ZM65.6234 23.1152C65.7054 23.0742 65.7259 23.0332 65.7259 22.9922C65.7259 22.9102 65.6849 22.8896 65.6029 22.8896C65.5413 22.8896 65.5003 22.9307 65.4798 23.0332C65.4798 23.0947 65.5413 23.1152 65.6234 23.1152ZM71.5911 17.8242C72.1859 17.8037 72.473 17.7627 72.473 17.6807C72.473 17.6191 72.3499 17.5781 72.1038 17.5781C71.5091 17.5781 71.2015 17.6396 71.2015 17.7422C71.3655 17.8037 71.4886 17.8242 71.5911 17.8242ZM73.4779 17.7422L73.5599 17.7012C73.4779 17.6602 73.4163 17.6396 73.3343 17.6396C73.2523 17.6396 73.2113 17.6602 73.2113 17.7012C73.2523 17.7217 73.3138 17.7422 73.3753 17.7422H73.4779ZM77.5384 17.9678C77.682 17.9678 77.764 17.9473 77.764 17.8857C77.764 17.8242 77.7025 17.8037 77.6204 17.8037C77.6204 17.8037 77.5794 17.8037 77.5384 17.8242C77.4974 17.8652 77.4769 17.8857 77.4769 17.9268C77.4769 17.9678 77.4974 17.9678 77.5384 17.9678ZM76.6361 17.8037C76.9437 17.7832 77.0872 17.7627 77.0872 17.7217C77.0667 17.5986 76.5745 17.5371 75.5902 17.5371C75.1595 17.5371 74.7288 17.5576 74.2571 17.6396C75.3646 17.7422 76.1644 17.8037 76.6361 17.8037ZM93.5132 21.6182C93.4516 21.1875 93.3696 20.7568 93.2876 20.3262C93.185 19.916 93.103 19.5674 93.021 19.3418C93.0005 19.2598 92.98 19.1777 92.9389 19.0957C92.9184 18.9727 92.8774 18.8701 92.8569 18.8086C92.8159 18.7471 92.7954 18.7266 92.7749 18.7676C92.7749 18.8086 92.7544 18.9316 92.7544 19.1367C92.7544 19.5469 92.6108 19.7109 92.3442 19.6289C91.852 19.5674 91.8725 19.6904 92.4057 19.998C92.5903 20.0801 92.6928 20.1621 92.7134 20.2441C92.7339 20.3467 92.7134 20.5107 92.6313 20.7363C92.3647 21.4746 92.1596 21.4746 92.0161 20.7773C91.9136 20.3672 91.811 20.1211 91.688 20.0186C91.5854 19.916 91.4829 19.916 91.3803 19.998C91.2983 20.1006 91.2573 20.2441 91.2368 20.4287C91.2163 20.6133 91.2573 20.7979 91.3598 20.9824L91.5444 21.126C91.8315 21.3516 91.9956 21.5771 92.0776 21.7822C92.1596 21.9873 92.0981 22.1104 91.893 22.1309C91.6675 22.1514 91.5649 22.0078 91.5854 21.7207C91.5854 21.5156 91.5649 21.4131 91.5444 21.3926C91.5034 21.3721 91.4419 21.4131 91.3598 21.5566C91.2983 21.6387 91.2163 21.6797 91.1343 21.7207C91.0317 21.7617 90.9702 21.7617 90.8882 21.7207C90.7856 21.7412 90.7036 21.8027 90.6421 21.9053C90.5805 22.0078 90.5395 22.1514 90.478 22.2949C90.4165 22.6025 90.2524 22.9102 90.0063 23.1973C89.9243 23.2793 89.9243 23.3818 89.9858 23.5049C90.0678 23.6279 90.1499 23.751 90.2524 23.874C90.3139 23.9766 90.3755 24.0586 90.396 24.0996C90.437 24.1611 90.396 24.1816 90.2934 24.1611C90.1089 24.1406 89.9448 24.2227 89.8012 24.4277C89.6782 24.6328 89.6167 24.8379 89.6167 25.043C89.6167 25.2275 89.5962 25.3711 89.5552 25.4736C89.5141 25.5762 89.4526 25.6582 89.4116 25.7402C89.3296 25.8223 89.268 25.9453 89.227 26.1094C89.1655 26.2529 89.145 26.4785 89.1655 26.7656C89.186 26.8477 89.145 26.9502 89.063 27.1143C89.0014 27.2783 88.9194 27.4424 88.8169 27.6064C88.7143 27.832 88.6323 27.9961 88.5708 28.1396C88.4067 28.5703 88.2837 28.9189 88.1811 29.2471C88.0786 29.5137 87.9761 29.8008 87.8735 30.1084C87.771 30.3955 87.6069 30.7646 87.4223 31.1748C87.1968 31.7285 87.0327 32.3027 86.8891 32.918C86.8276 33.1846 86.7456 33.4512 86.6841 33.7178C86.4995 34.333 86.3149 34.9482 86.1714 35.5635C86.0688 36.0967 86.0278 36.4658 86.0278 36.6709C86.0278 36.8965 86.0483 37.0195 86.1303 37.0605C86.1919 37.0811 86.2944 37.0811 86.438 37.04C86.5815 36.999 86.7866 36.9785 87.0122 37.0195C87.0737 37.04 87.0942 37.1016 87.0942 37.2041C87.0942 37.3066 87.0737 37.4297 87.0327 37.5732C86.9712 37.7783 86.9507 37.9629 86.9507 38.1475C86.9507 38.3936 86.9302 38.5371 86.9096 38.5781C86.8686 38.6191 86.8071 38.5986 86.7456 38.4961C86.6841 38.3936 86.6225 38.2705 86.561 38.1064C86.479 37.9629 86.4175 37.8193 86.3559 37.6758C86.3354 37.5732 86.2944 37.5117 86.2739 37.4502C86.2534 37.3887 86.2329 37.3682 86.2124 37.3682C86.1509 37.3066 86.0893 37.3271 86.0483 37.4297C85.9868 37.5117 85.9663 37.6348 85.9458 37.7988C85.9048 37.9834 85.8843 38.168 85.8843 38.3525C85.8637 38.5986 85.8227 38.8037 85.8022 39.0088C85.7612 39.1934 85.6997 39.2959 85.6382 39.3369C85.5766 39.3779 85.4741 39.2754 85.3305 39.0703C85.31 39.0293 85.31 39.0088 85.2895 38.9883C85.2895 38.9678 85.2895 38.9678 85.2895 38.9473L85.31 38.9268C85.31 38.9062 85.31 38.9062 85.31 38.9062C85.31 38.8857 85.2895 38.8857 85.269 38.8652C85.2485 38.8447 85.228 38.8242 85.187 38.7832C85.146 38.7627 85.105 38.7217 85.0434 38.6807C84.9819 38.6396 84.9204 38.5781 84.8384 38.5166C83.6079 37.6348 83.0747 36.4453 83.2182 34.9482C83.2182 34.9277 83.2182 34.8867 83.2387 34.8457C83.2798 34.6816 83.3208 34.4561 83.3823 34.1689C83.4643 33.8818 83.5259 33.6357 83.6079 33.3896C83.6899 33.1436 83.7514 33 83.813 32.9795C83.9155 32.8564 84.018 32.6309 84.1616 32.2617C84.2846 31.8926 84.4077 31.4824 84.5512 31.0312C84.6743 30.5596 84.7973 30.1289 84.8999 29.7598C84.9819 29.4316 85.0434 29.2061 85.105 29.042C85.4741 27.873 85.8843 26.7451 86.3354 25.6172C86.8276 24.3867 87.2788 23.0947 87.6889 21.7822C87.894 21.0439 88.1401 20.2646 88.4067 19.4443C89.4526 16.4502 90.0884 13.6406 90.3139 11.0361C90.2934 10.2979 90.3755 9.86719 90.56 9.74414C90.7446 9.60059 91.2163 9.70312 91.9751 10.0312C92.0366 10.0723 92.1802 10.1543 92.4468 10.2773C92.7134 10.4209 93.021 10.585 93.3491 10.7695C93.6772 10.9541 93.9643 11.0977 94.2104 11.2412C94.4565 11.3643 94.5796 11.4463 94.6001 11.4668C94.7436 11.6104 94.8667 11.9385 94.9897 12.4922C95.1128 13.0254 95.2153 13.6406 95.3178 14.3174C95.4204 14.9941 95.5229 15.6094 95.5844 16.1836C95.646 16.6553 95.7075 17.0039 95.7485 17.2295C95.8305 17.7217 95.9536 18.2139 96.0766 18.6855C96.2202 19.2188 96.3432 19.793 96.4458 20.4287C96.6509 21.8027 96.8764 23.1768 97.143 24.5508C97.1841 24.7969 97.2046 25.002 97.2251 25.166C97.2251 25.3096 97.2456 25.4326 97.2661 25.5762C97.2866 25.7197 97.3276 25.8838 97.3891 26.0684C97.4302 26.2529 97.4712 26.5195 97.5532 26.8477C97.7173 27.709 97.9428 28.7344 98.23 29.9854C98.5376 31.2158 98.8862 32.3232 99.2964 33.3281C99.727 34.3125 100.199 34.8457 100.711 34.9688L100.855 34.9482C101.347 34.8662 101.778 34.4971 102.208 33.8613C102.619 33.2256 102.988 32.5283 103.295 31.749C103.624 30.9902 103.849 30.3545 104.034 29.8418C104.054 29.7803 104.075 29.7393 104.095 29.6777C104.505 28.4883 104.916 27.3193 105.326 26.1299C105.531 25.5352 105.756 24.9199 105.961 24.3047C107.971 18.6035 109.632 12.7793 110.945 6.87305C110.965 6.72949 111.047 6.33984 111.191 5.72461C111.334 5.08887 111.499 4.41211 111.704 3.65332C111.888 2.89453 112.073 2.23828 112.237 1.70508C112.421 1.17188 112.544 0.925781 112.647 0.966797C112.77 1.11035 112.77 1.43848 112.667 1.99219C112.544 2.5459 112.401 3.16113 112.216 3.81738C112.052 4.41211 111.929 4.9248 111.827 5.37598C111.745 5.82715 111.724 6.09375 111.806 6.19629C111.888 6.15527 111.97 6.01172 112.073 5.78613C112.175 5.54004 112.278 5.25293 112.401 4.96582C112.503 4.67871 112.585 4.45312 112.688 4.24805C112.77 4.04297 112.832 3.94043 112.873 3.91992C112.934 3.91992 112.934 4.08398 112.914 4.3916C112.873 5.12988 112.688 6.11426 112.421 7.30371C112.155 8.49316 111.868 9.66211 111.581 10.79C111.416 11.5078 111.252 12.1025 111.15 12.6152C110.924 13.5791 110.74 14.543 110.596 15.5068C110.535 16.0605 110.494 16.4092 110.514 16.5938C110.514 16.7578 110.555 16.7988 110.617 16.7168C110.678 16.6348 110.76 16.4912 110.842 16.2861C110.924 16.0605 111.006 15.835 111.109 15.6094C111.17 15.4453 111.211 15.3018 111.252 15.1787C111.314 15.0557 111.334 14.9941 111.355 14.9531C111.375 14.9326 111.396 14.9941 111.375 15.1172C111.355 15.2402 111.314 15.4658 111.252 15.7939C111.191 16.1221 111.129 16.3682 111.068 16.5527C110.986 16.7578 110.924 16.8809 110.863 16.9629C110.801 17.0654 110.74 17.1064 110.699 17.1475C110.637 17.168 110.596 17.1885 110.535 17.1885C110.514 17.1885 110.494 17.1885 110.453 17.209C110.432 17.209 110.412 17.2295 110.391 17.2705C110.371 17.3525 110.371 17.4141 110.432 17.4551C110.494 17.5166 110.576 17.5576 110.678 17.5986C110.781 17.6396 110.883 17.6807 110.986 17.7012C111.109 17.7217 111.17 17.7627 111.232 17.7832C111.273 17.8037 111.273 17.8242 111.211 17.8447C111.15 17.8857 110.986 17.9062 110.74 17.9268C110.207 17.9883 109.94 18.0908 109.96 18.2344C109.981 18.3779 110.207 18.583 110.617 18.8496C110.596 18.8701 110.576 18.8701 110.555 18.8701C110.33 18.9521 110.166 19.0137 110.063 19.0547C109.96 19.0957 109.919 19.1162 109.919 19.1572C109.899 19.1777 109.919 19.2188 109.96 19.2803C110.001 19.3418 110.042 19.4648 110.083 19.6494C110.124 19.834 110.083 20.1006 110.001 20.4697C109.96 20.5723 109.94 20.6338 109.94 20.6748C109.919 20.7158 109.919 20.7363 109.94 20.7363C109.94 20.7363 109.96 20.7158 109.981 20.6748C110.022 20.6338 110.063 20.5928 110.124 20.5312C110.186 20.4902 110.248 20.4492 110.33 20.4287C110.412 20.3877 110.514 20.4082 110.617 20.4697C110.699 20.5518 110.699 20.6133 110.658 20.6748C110.617 20.7158 110.514 20.7773 110.391 20.8184C110.248 20.9004 110.104 20.9824 109.94 21.126C109.776 21.249 109.653 21.4336 109.571 21.6592C109.571 21.6797 109.55 21.7207 109.53 21.7412C109.468 21.7617 109.407 21.8438 109.345 21.9463C109.263 22.0488 109.202 22.2334 109.12 22.4795C109.099 22.5 109.079 22.5615 109.058 22.623C108.976 22.9102 108.874 23.2998 108.73 23.8125C108.586 24.3252 108.463 24.8174 108.381 25.2686C108.299 25.6992 108.299 25.9658 108.402 26.0479C108.607 26.1504 108.75 26.1094 108.812 25.9043C108.874 25.7197 108.915 25.4736 108.935 25.1865C108.956 24.8994 109.017 24.6533 109.079 24.4482C109.14 24.2432 109.284 24.1611 109.489 24.2432C109.55 24.2637 109.571 24.3662 109.571 24.5098C109.571 24.6738 109.55 24.8584 109.509 25.0635C109.448 25.4531 109.427 25.8018 109.427 26.1299C109.448 26.1914 109.386 26.2939 109.304 26.458C109.202 26.6016 109.099 26.7656 108.976 26.9502C108.771 27.2168 108.627 27.4424 108.525 27.627C107.602 29.3701 107.028 31.2158 106.823 33.1436C106.782 33.2871 106.7 33.4512 106.536 33.6768C106.29 33.9434 106.064 34.333 105.859 34.8867C105.715 35.1943 105.592 35.3994 105.469 35.502C105.346 35.6045 105.244 35.6865 105.162 35.707C105.08 35.748 105.039 35.7686 104.998 35.8301C104.977 35.8711 104.957 35.9531 104.957 36.0762C104.977 36.2197 105.018 36.4043 105.08 36.6914C105.121 36.8555 105.1 36.917 105.039 36.8965C104.977 36.8965 104.895 36.8555 104.772 36.7734C104.669 36.6914 104.546 36.6299 104.444 36.5684C104.321 36.5273 104.239 36.5684 104.177 36.6914C104.198 36.7939 104.218 36.876 104.259 36.958C104.321 37.0605 104.321 37.1426 104.321 37.2246C104.3 37.2861 104.198 37.3477 104.013 37.3887C103.849 37.4502 103.521 37.4707 103.07 37.5117C102.085 37.5527 101.019 37.3887 99.8706 36.999C98.7221 36.6094 97.8403 36.0146 97.2046 35.2354C96.3843 33.9639 95.7895 32.5693 95.4204 31.0723C94.6411 28.2422 94.0464 25.3506 93.6362 22.4385C93.6157 22.2949 93.5952 22.1514 93.5747 22.0078C93.5542 21.8848 93.5337 21.7412 93.5132 21.6182ZM106.7 30.5801C106.659 30.6416 106.515 30.9492 106.249 31.5029C106.002 32.0361 105.715 32.6514 105.408 33.3486C105.08 34.0254 104.813 34.6406 104.608 35.1533C104.403 35.666 104.3 35.9326 104.362 35.9531C104.403 35.9736 104.649 35.584 105.121 34.7637C105.469 34.1895 105.818 33.4512 106.187 32.5693C106.577 31.708 106.802 30.9287 106.884 30.2725L106.7 30.5801ZM98.0659 30.2109C98.0249 30.1084 97.9839 30.0674 97.9223 30.0469C97.8813 30.0264 97.8403 30.0469 97.7993 30.0879C97.7583 30.1289 97.7583 30.1904 97.7583 30.252C97.7788 30.3135 97.8403 30.3955 97.9428 30.457C97.9839 30.4775 98.0249 30.4775 98.0454 30.457C98.0659 30.4365 98.0864 30.3955 98.0864 30.334C98.0864 30.293 98.0659 30.2314 98.0659 30.2109ZM107.93 26.8682C107.705 27.1963 107.52 27.5654 107.356 27.9756C107.192 28.3857 107.069 28.7549 106.987 29.1035C106.905 29.4316 106.864 29.6777 106.884 29.8008C106.905 29.9238 106.987 29.8828 107.151 29.6572C107.294 29.4521 107.52 28.9805 107.807 28.2832C107.828 28.2217 107.848 28.1807 107.889 28.1191C107.992 27.8936 108.074 27.6475 108.156 27.3809C108.238 27.1348 108.217 26.9092 108.115 26.7041L107.93 26.8682ZM96.8149 25.9658C96.8969 26.1094 96.9585 26.1299 96.9995 26.0684C97.0405 26.0068 97.061 25.9043 97.0405 25.7607C97.0405 25.6172 96.9995 25.4941 96.938 25.3506C96.8559 25.2275 96.7534 25.166 96.6303 25.1455C96.5688 25.248 96.5688 25.3711 96.6098 25.5146C96.6509 25.6377 96.7124 25.7607 96.7739 25.8838C96.7944 25.9043 96.7944 25.9453 96.8149 25.9658ZM96.1792 22.6846C96.2407 22.8076 96.2817 22.8691 96.3022 22.8896C96.3227 22.9307 96.3227 22.9102 96.3227 22.8896C96.3227 22.8486 96.3227 22.8076 96.3022 22.7461C96.2817 22.6846 96.2817 22.6025 96.2407 22.541C96.2202 22.4795 96.1997 22.418 96.1792 22.3564C96.1587 22.3154 96.1382 22.2744 96.1177 22.2744L96.0971 22.3359C96.0971 22.377 96.0971 22.418 96.1177 22.4795C96.1382 22.541 96.1587 22.6025 96.1792 22.6641V22.6846ZM92.5493 19.2803C92.5493 19.2188 92.5493 19.1777 92.5083 19.1367C92.4878 19.1162 92.4262 19.0957 92.3647 19.0957C92.3032 19.0957 92.2622 19.0752 92.2212 19.0137C92.1802 18.9727 92.1596 18.8906 92.1596 18.8086C92.1391 18.6445 92.0981 18.5625 92.0161 18.542C91.9546 18.5215 91.8725 18.5625 91.7905 18.6445C91.729 18.7266 91.688 18.8291 91.688 18.9521C91.688 19.0752 91.7495 19.1777 91.893 19.3008C92.2622 19.5674 92.4673 19.5469 92.5493 19.2803ZM108.812 18.2549C108.709 18.2139 108.648 18.2139 108.607 18.2549C108.545 18.2959 108.545 18.3574 108.545 18.4395C108.545 18.5215 108.566 18.5625 108.627 18.6035C108.668 18.6445 108.75 18.624 108.832 18.542C108.874 18.501 108.894 18.4395 108.874 18.3984C108.853 18.3369 108.832 18.2959 108.812 18.2549ZM92.4262 18.2754C92.5288 18.3574 92.5903 18.3779 92.6518 18.3369C92.6928 18.2959 92.7339 18.2344 92.7544 18.1318C92.7544 18.0293 92.7544 17.9062 92.7544 17.7832C92.7544 17.6602 92.7339 17.5576 92.7134 17.4551C92.6928 17.3525 92.6723 17.291 92.6518 17.25C92.6313 17.209 92.6108 17.2295 92.5903 17.291C92.5903 17.373 92.5903 17.4141 92.6108 17.4551C92.6313 17.4756 92.6313 17.5166 92.6313 17.5166C92.6313 17.5371 92.5903 17.5576 92.5698 17.5576C92.5288 17.5781 92.4468 17.5781 92.3442 17.5781C92.2417 17.5781 92.2007 17.6191 92.2007 17.7012C92.2007 17.7832 92.2212 17.8652 92.2622 17.9473C92.3032 18.0498 92.3442 18.1318 92.3852 18.2139C92.4057 18.2344 92.4262 18.2549 92.4262 18.2754ZM108.956 17.4756C108.853 17.4141 108.75 17.4141 108.689 17.4756C108.627 17.5166 108.586 17.5986 108.586 17.6807C108.586 17.7627 108.607 17.8037 108.668 17.8447C108.73 17.8857 108.832 17.8652 108.956 17.7627C109.017 17.7217 109.038 17.6807 109.038 17.6191C109.038 17.5781 109.017 17.5166 108.956 17.4756ZM109.284 15.7939C109.284 15.8965 109.325 15.9785 109.366 15.999C109.427 16.04 109.489 16.04 109.55 16.0195C109.591 15.999 109.632 15.958 109.653 15.8965C109.653 15.835 109.612 15.7529 109.53 15.6709C109.489 15.6504 109.427 15.6504 109.386 15.6709C109.345 15.7119 109.304 15.7529 109.284 15.7939ZM109.714 14.0508C109.591 14.1123 109.55 14.1738 109.571 14.2354C109.612 14.2969 109.673 14.3584 109.776 14.3994C109.858 14.4404 109.96 14.4609 110.063 14.4404C110.145 14.4199 110.207 14.3379 110.227 14.2148C110.227 14.1328 110.186 14.0918 110.124 14.0508C110.063 14.0303 109.981 14.0303 109.919 14.0303C109.837 14.0303 109.755 14.0508 109.714 14.0508ZM110.248 13.7842C110.412 13.7842 110.514 13.7432 110.514 13.6611C110.535 13.5996 110.514 13.5381 110.432 13.4561C110.35 13.3945 110.268 13.374 110.186 13.374C110.104 13.374 110.042 13.4561 110.001 13.5996C109.981 13.6406 110.001 13.6816 110.022 13.7021C110.063 13.7227 110.083 13.7432 110.124 13.7637C110.166 13.7842 110.207 13.7842 110.248 13.7842ZM110.699 12.1025C110.863 12.082 110.945 12.041 110.965 11.959C110.986 11.8975 110.965 11.8154 110.904 11.7539C110.822 11.6924 110.74 11.6514 110.658 11.6719C110.576 11.6719 110.494 11.7539 110.453 11.8975C110.453 11.959 110.453 11.9795 110.473 12.0205C110.514 12.041 110.535 12.0615 110.576 12.082C110.617 12.082 110.658 12.1025 110.699 12.1025ZM110.842 10.7695C110.904 10.6875 110.924 10.6055 110.904 10.5439C110.863 10.4619 110.822 10.4209 110.76 10.3799C110.678 10.3594 110.617 10.3799 110.576 10.4209C110.535 10.4619 110.514 10.5439 110.555 10.6875C110.576 10.7695 110.617 10.8105 110.678 10.8311C110.74 10.8311 110.801 10.8105 110.842 10.7695ZM111.109 9.55957C111.17 9.68262 111.252 9.72363 111.314 9.68262C111.396 9.62109 111.437 9.55957 111.478 9.43652C111.519 9.33398 111.519 9.23145 111.478 9.16992C111.437 9.08789 111.334 9.08789 111.191 9.14941C111.129 9.19043 111.088 9.25195 111.088 9.33398C111.088 9.41602 111.088 9.49805 111.109 9.55957ZM111.642 8.47266C111.786 8.14453 111.847 7.85742 111.827 7.61133C111.827 7.38574 111.765 7.2627 111.642 7.2627C111.54 7.2627 111.396 7.42676 111.252 7.77539C111.211 7.87793 111.191 8.00098 111.211 8.12402C111.232 8.24707 111.273 8.34961 111.334 8.43164C111.416 8.49316 111.519 8.51367 111.642 8.47266ZM87.2993 33.4307C87.4223 33.2871 87.5249 33.2461 87.6069 33.2871C87.7094 33.3281 87.771 33.4102 87.8325 33.5537C87.894 33.6973 87.935 33.8408 87.9555 34.0049C87.9555 34.1689 87.9555 34.292 87.9145 34.3945C87.8735 34.4971 87.812 34.5176 87.7094 34.4766C87.6889 34.4561 87.6684 34.4355 87.6889 34.374C87.6889 34.3125 87.6889 34.251 87.7094 34.1689C87.73 34.1074 87.73 34.0459 87.7505 33.9844C87.7505 33.9434 87.7505 33.9023 87.73 33.8818C87.6889 33.8613 87.6479 33.8818 87.5864 33.9229C87.4839 33.9844 87.4428 34.0869 87.4428 34.21C87.4428 34.333 87.4634 34.4561 87.5044 34.5996C87.5864 34.8457 87.6069 35.0713 87.5659 35.3174C87.5249 35.502 87.4839 35.625 87.4428 35.6865C87.4018 35.7686 87.3403 35.7891 87.2993 35.7686C87.2583 35.748 87.2173 35.7275 87.1557 35.6865C87.1352 35.666 87.0942 35.625 87.0532 35.625C87.0327 35.6045 86.9917 35.625 86.9712 35.6865C86.9507 35.7275 86.9302 35.8301 86.9096 35.9736C86.8891 36.1377 86.9302 36.2402 87.0122 36.3018C87.0942 36.3428 87.1762 36.3838 87.2788 36.4043C87.3813 36.4043 87.4634 36.4453 87.5249 36.4863C87.5864 36.5273 87.5864 36.6094 87.5249 36.7529C87.3608 36.958 87.1762 36.999 86.9712 36.8965C86.7866 36.7734 86.643 36.5273 86.5815 36.1377C86.52 35.748 86.6225 35.2559 86.8686 34.6611L86.9917 34.415C87.0122 34.333 87.0327 34.2715 87.0532 34.2305C87.0532 34.1895 87.0532 34.1484 87.0532 34.1074C87.0327 34.0459 87.0532 33.9639 87.0737 33.8613C87.0942 33.7588 87.1762 33.6152 87.2993 33.4307ZM106.556 34.1895C106.474 34.1279 106.433 34.0664 106.454 34.0049C106.454 33.9434 106.495 33.9023 106.556 33.8818C106.618 33.8613 106.679 33.8613 106.741 33.8818C106.782 33.9229 106.802 33.9844 106.802 34.1074C106.782 34.1484 106.761 34.1895 106.7 34.1895C106.638 34.21 106.597 34.1895 106.556 34.1895ZM88.0376 32.6924C88.0991 32.4258 88.1811 32.2822 88.2632 32.2412C88.3657 32.2207 88.4067 32.3027 88.4272 32.4873C88.4477 32.6514 88.3862 32.918 88.2221 33.2461C88.1606 33.3691 88.0991 33.4102 88.0786 33.4102C88.0581 33.3896 88.0376 33.3486 88.0376 33.2666C88.0171 33.1641 88.0171 33.082 88.0171 32.9795C88.0376 32.877 88.0376 32.7949 88.0376 32.7334C88.0376 32.7129 88.0376 32.6924 88.0376 32.6924ZM87.6684 32.4873C87.771 32.5488 87.812 32.6104 87.812 32.6719C87.8325 32.7334 87.7915 32.7949 87.7505 32.8359C87.6889 32.877 87.6479 32.8975 87.5864 32.8975C87.5249 32.8975 87.5044 32.8564 87.4839 32.7539C87.4839 32.7129 87.5044 32.6514 87.5249 32.5898C87.5659 32.5488 87.6069 32.5078 87.6684 32.4873ZM88.0581 31.626C88.0581 31.749 88.0171 31.8721 87.9761 31.9746C87.9145 32.0771 87.853 32.1387 87.7915 32.2002C87.7094 32.2412 87.6684 32.2412 87.6274 32.2002C87.6069 32.1387 87.6069 32.0361 87.6684 31.8721C87.6889 31.79 87.7094 31.7285 87.771 31.6875C87.812 31.626 87.853 31.585 87.9145 31.5645C87.9761 31.5439 88.0171 31.5645 88.0581 31.626ZM88.4272 31.2979C88.4887 31.1543 88.5708 31.0723 88.6323 31.0518C88.7143 31.0518 88.7553 31.0723 88.7964 31.1338C88.8374 31.1953 88.8374 31.2773 88.7964 31.3594C88.7759 31.4414 88.6733 31.5029 88.5503 31.5645C88.4887 31.5645 88.4477 31.5645 88.4272 31.5439C88.4067 31.5029 88.3862 31.4619 88.4067 31.4209C88.4067 31.3799 88.4067 31.3389 88.4272 31.2979ZM89.0835 30.0674C89.145 30.293 89.145 30.416 89.063 30.4365C89.0014 30.4365 88.8989 30.3955 88.7964 30.2725C88.6733 30.1494 88.5913 30.0264 88.5298 29.8623C88.4682 29.6982 88.4682 29.5547 88.5503 29.4521C88.5913 29.3701 88.6528 29.3701 88.7143 29.4111C88.7553 29.4521 88.8169 29.5137 88.8784 29.6162C88.9399 29.6982 88.9809 29.8008 89.0219 29.8828C89.063 29.9854 89.0835 30.0469 89.0835 30.0674ZM89.4526 28.1396C89.5346 28.0166 89.6167 27.9756 89.6577 28.0576C89.7192 28.1191 89.7397 28.2217 89.7397 28.3857C89.7397 28.5498 89.7192 28.7139 89.6577 28.8574C89.5962 29.001 89.4936 29.1035 89.3501 29.124C89.227 29.1445 89.1655 29.124 89.145 29.042C89.145 28.96 89.145 28.8369 89.186 28.7139C89.227 28.5908 89.2886 28.4678 89.3296 28.3652C89.3911 28.2422 89.4321 28.1807 89.4526 28.1396ZM89.9448 27.0117C90.0473 26.9912 90.1089 27.0527 90.1089 27.1758C90.1294 27.2988 90.1089 27.4219 90.0678 27.5859C90.0268 27.7295 89.9448 27.8525 89.8628 27.9141C89.7807 27.9756 89.6987 27.9551 89.5962 27.832C89.5757 27.7705 89.5757 27.6885 89.6167 27.5859C89.6577 27.4629 89.7192 27.3398 89.7807 27.2373C89.8423 27.1143 89.9038 27.0527 89.9448 27.0117ZM90.4575 25.2686C90.4985 25.248 90.5395 25.207 90.56 25.125C90.6011 25.043 90.6011 24.9404 90.6011 24.8379C90.5805 24.6328 90.6216 24.5303 90.6831 24.5098C90.7446 24.4893 90.8266 24.5303 90.9087 24.6328C90.9907 24.7354 91.0317 24.8789 91.0727 25.084C91.0727 25.3506 91.0112 25.5352 90.9292 25.6377C90.8266 25.7197 90.7241 25.7607 90.6216 25.7402C90.519 25.7197 90.437 25.6582 90.3755 25.5762C90.3139 25.4941 90.3344 25.3916 90.396 25.2891L90.4165 25.2686C90.4165 25.2686 90.437 25.2686 90.4575 25.2686ZM90.2934 24.6738C90.2934 24.7354 90.2934 24.7764 90.2729 24.8174C90.2524 24.8584 90.2114 24.8789 90.1499 24.8789C90.0268 24.8789 89.9448 24.8379 89.9038 24.7764C89.8833 24.6943 89.8833 24.6328 89.9243 24.5713C89.9653 24.5098 90.0268 24.4688 90.0884 24.4688C90.1499 24.4688 90.2319 24.5508 90.2934 24.6738ZM109.366 23.3203C109.366 23.0742 109.407 22.9512 109.489 22.9307C109.571 22.9102 109.632 22.9717 109.714 23.0742C109.776 23.1973 109.817 23.3203 109.817 23.4639C109.796 23.6074 109.714 23.7305 109.55 23.8125C109.468 23.751 109.427 23.6689 109.407 23.5869C109.386 23.5049 109.366 23.4229 109.366 23.3203ZM90.8061 24.2021C90.7446 24.1406 90.7241 24.0791 90.7036 24.0176C90.7036 23.9561 90.7241 23.8945 90.7651 23.8535C90.8061 23.8125 90.8471 23.7305 90.8882 23.6074C90.9292 23.4844 90.9497 23.3613 90.9702 23.2178L90.9907 22.7051L91.1753 23.2383C91.3393 23.71 91.3803 24.0586 91.2983 24.2637C91.2368 24.4688 91.0522 24.4482 90.8061 24.2021ZM91.4419 23.0332C91.2983 22.9307 91.2368 22.8281 91.2368 22.7461C91.2368 22.6436 91.3188 22.582 91.4624 22.582C91.5444 22.5615 91.6264 22.582 91.688 22.623C91.7495 22.6436 91.7905 22.6846 91.811 22.7461C91.852 22.8691 91.8315 22.9717 91.7495 23.0332C91.6675 23.0947 91.5649 23.1152 91.4419 23.0332ZM111.724 13.8662C111.642 14.0098 111.581 14.0508 111.519 14.0303C111.437 13.9893 111.396 13.9072 111.375 13.8047C111.334 13.6816 111.355 13.5791 111.396 13.4561C111.437 13.3535 111.54 13.3125 111.683 13.292C111.745 13.3125 111.786 13.3535 111.806 13.4355C111.806 13.4971 111.806 13.5791 111.786 13.6611C111.765 13.7637 111.745 13.8252 111.724 13.8662ZM112.114 12.082C112.052 12.4102 111.97 12.6562 111.868 12.7998C111.745 12.9434 111.663 12.9639 111.642 12.8818C111.601 12.7793 111.683 12.5537 111.847 12.2051C111.888 12.1436 111.909 12.1025 111.95 12.0615C111.991 12.0205 112.032 12 112.114 12V12.082ZM112.421 11.0566C112.319 11.1797 112.216 11.2207 112.175 11.2207C112.114 11.2002 112.093 11.1592 112.093 11.0771C112.093 11.0156 112.114 10.9336 112.134 10.8516C112.175 10.7695 112.237 10.708 112.298 10.667C112.36 10.626 112.442 10.6465 112.524 10.708C112.565 10.749 112.565 10.79 112.565 10.8311C112.544 10.8721 112.524 10.9131 112.503 10.9541C112.483 10.9951 112.442 11.0361 112.421 11.0566ZM112.585 10.2773C112.503 10.3594 112.442 10.3799 112.401 10.3594C112.36 10.3184 112.36 10.2568 112.339 10.1748C112.339 10.0928 112.36 10.0107 112.38 9.92871C112.421 9.84668 112.442 9.80566 112.483 9.78516C112.544 9.76465 112.585 9.80566 112.647 9.9082C112.688 9.96973 112.688 10.0312 112.667 10.1133C112.647 10.1748 112.606 10.2363 112.585 10.2773ZM116.984 33.6357C116.492 33.5947 115.856 33.3486 115.077 32.8975C114.708 32.6924 114.441 32.5078 114.277 32.3027C114.133 32.0977 113.99 31.8926 113.887 31.667C113.785 31.4209 113.641 31.1748 113.436 30.8672C113.169 30.457 113.005 30.1289 112.964 29.8418C112.923 29.5752 112.903 29.3496 112.903 29.124C112.903 28.9189 112.903 28.7139 112.944 28.4883C113.108 27.3398 113.457 26.3145 113.99 25.3711C114.79 23.9766 115.815 22.8691 117.066 22.0488C117.845 21.6387 118.686 21.4746 119.588 21.5361C120.06 21.5771 120.511 21.7207 120.901 22.0078C121.147 22.1924 121.27 22.377 121.311 22.541C121.311 22.7666 121.311 22.9717 121.352 23.1562C121.352 23.3613 121.414 23.4844 121.537 23.5254C121.66 23.6074 121.701 23.6895 121.701 23.8125C121.701 23.9561 121.619 24.1611 121.434 24.4277C121.291 24.6328 121.209 24.8174 121.188 24.9609L121.27 24.9814C121.332 25.002 121.475 24.8994 121.68 24.6738C121.865 24.5098 121.967 24.4277 122.008 24.4277C122.07 24.4277 122.09 24.4688 122.09 24.5713C122.09 25.207 121.803 25.8018 121.188 26.376C120.06 27.4424 119.035 28.0781 118.173 28.2627C118.05 28.2832 117.948 28.2832 117.886 28.2832C117.763 28.2832 117.702 28.2217 117.661 28.1396C117.64 28.0371 117.517 27.9551 117.353 27.8936C117.271 27.873 117.23 27.832 117.23 27.8115C117.23 27.7705 117.271 27.7295 117.353 27.709C117.435 27.668 117.497 27.6475 117.538 27.6475C117.579 27.627 117.62 27.6064 117.62 27.6064C117.825 27.5244 118.009 27.4629 118.153 27.4424C118.604 27.1963 119.096 26.8887 119.67 26.4785C120.45 25.9453 120.839 25.5762 120.839 25.3506V25.3301C120.696 25.3301 120.224 25.6172 119.445 26.1709C119.076 26.4375 118.809 26.6221 118.645 26.7041C117.784 27.1143 117.086 27.3193 116.574 27.2783L116.246 27.2373C115.959 27.2168 115.815 27.4629 115.815 27.9756C115.815 28.0166 115.815 28.0576 115.836 28.0986C115.856 28.1396 115.856 28.1807 115.877 28.2217C115.897 28.2627 115.897 28.3037 115.897 28.3037C115.897 28.3242 115.877 28.3447 115.856 28.3447L115.753 28.3242C115.61 28.3037 115.528 28.4062 115.528 28.5908C115.528 28.6934 115.548 28.7959 115.548 28.9189C115.569 29.0215 115.589 29.165 115.589 29.2881C115.589 29.4111 115.569 29.5137 115.528 29.5957C115.507 29.6777 115.487 29.7393 115.487 29.7803C115.487 29.8623 115.548 29.9648 115.712 30.0674L115.815 30.1289C116.082 30.3135 116.369 30.416 116.717 30.4365C117.169 30.457 117.702 30.3545 118.276 30.1289C119.322 29.7188 120.327 29.1445 121.332 28.4678C123.218 27.1348 124.941 25.6787 126.5 24.0791C127.32 23.2588 127.771 22.8691 127.853 22.8691C127.874 22.8691 127.874 22.8691 127.874 22.8896C127.874 22.9717 127.648 23.2793 127.197 23.7715C126.007 25.125 125.372 25.8838 125.29 26.0273L125.802 25.5762C126.479 24.9814 126.848 24.6738 126.889 24.6738C126.889 24.8174 126.561 25.248 125.905 25.9658C124.203 27.7705 122.419 29.3086 120.511 30.6006C120.409 30.6416 120.327 30.7236 120.224 30.8262C120.04 31.0312 119.855 31.1543 119.67 31.2158C119.322 31.2568 118.809 31.5234 118.112 32.0156C117.763 32.2412 117.599 32.4258 117.558 32.5898C117.558 32.6514 117.579 32.6719 117.62 32.6719C117.661 32.6924 117.722 32.6719 117.763 32.6514C117.825 32.6309 117.886 32.6104 117.927 32.5898C117.968 32.5693 117.989 32.5488 118.009 32.5488C119.753 31.626 121.434 30.5391 123.075 29.2676C123.218 29.1445 123.321 29.083 123.362 29.1035C123.362 29.165 123.28 29.2676 123.136 29.4316C122.706 29.9033 122.46 30.1494 122.357 30.1904C122.213 30.3135 122.09 30.416 121.988 30.4775C121.885 30.5596 121.742 30.7031 121.557 30.9287C121.352 31.1543 121.065 31.4209 120.675 31.7285C120.019 32.2412 119.506 32.6104 119.158 32.8359C118.378 33.3281 117.845 33.5947 117.538 33.6152C117.23 33.6357 117.045 33.6357 116.984 33.6357ZM116.943 25.7402C117.456 25.7812 118.071 25.5557 118.789 25.1045C119.363 24.7148 119.629 24.3662 119.629 24.0586C119.629 23.8945 119.506 23.792 119.281 23.792C118.85 23.751 118.337 23.9561 117.763 24.3867C117.353 24.6943 117.045 25.002 116.84 25.3096C116.758 25.4121 116.717 25.5146 116.717 25.5762C116.717 25.6787 116.799 25.7197 116.943 25.7402ZM116.143 28.0986C116.02 28.0986 115.979 28.0781 115.979 28.0576C115.979 28.0166 116 27.9551 116.082 27.8936C116.164 27.8525 116.225 27.791 116.307 27.7705C116.492 27.75 116.635 27.75 116.738 27.75C116.881 27.7705 116.963 27.791 116.963 27.873C116.963 27.9141 116.902 27.9756 116.758 28.0371C116.615 28.0986 116.41 28.1191 116.143 28.0986ZM133.954 35.0508C133.831 35.0508 133.708 35.0303 133.564 35.0098C132.928 34.8047 132.436 34.4971 132.067 34.1074C131.677 33.7178 131.349 33.2051 131.042 32.5898C130.919 32.3232 130.857 32.0771 130.837 31.8721C130.816 31.6875 130.775 31.4824 130.673 31.2979C130.59 31.1953 130.549 31.1338 130.508 31.1338C130.488 31.1133 130.467 31.1133 130.467 31.0928C130.467 31.0928 130.467 31.0723 130.467 31.0518C130.467 31.0312 130.488 30.9697 130.549 30.8672L130.57 30.7852C130.57 30.7236 130.549 30.6826 130.529 30.6826C130.324 30.6826 130.016 30.9902 129.606 31.585C129.381 31.9541 129.073 32.2617 128.663 32.4873C128.335 32.6719 128.006 32.7539 127.678 32.7539C127.289 32.7539 126.94 32.6104 126.632 32.3232C126.407 32.1387 126.161 31.9131 125.874 31.626C125.402 30.9697 125.156 30.1289 125.156 29.124C125.156 28.7139 125.258 27.9346 125.484 26.8066C125.587 26.2324 125.689 25.6377 125.771 25.0225C125.915 23.6484 126.263 22.9717 126.838 22.9717C127.104 22.9717 127.473 23.1152 127.904 23.3818C128.417 23.7305 128.663 24.0996 128.663 24.5098C128.663 24.7354 128.622 25.0225 128.54 25.3301C128.499 25.4941 128.458 25.6787 128.437 25.8838L128.232 26.6221C128.109 26.9502 128.048 27.1758 128.048 27.2783C128.048 27.3604 128.068 27.4014 128.109 27.4219C128.15 27.4424 128.212 27.4424 128.314 27.4424L128.335 27.4834L128.314 27.5859C128.253 27.6885 128.171 27.7295 128.109 27.7295C128.048 27.7295 128.006 27.7705 127.965 27.832C127.945 27.8936 127.904 28.0781 127.842 28.3857C127.822 28.5088 127.781 28.5908 127.76 28.6523C127.719 28.7139 127.699 28.7754 127.699 28.8164C127.699 28.8574 127.74 28.8984 127.801 28.96C127.863 29.0215 127.883 29.1035 127.883 29.1855C127.883 29.2471 127.863 29.2881 127.801 29.2881C127.781 29.2881 127.74 29.2676 127.678 29.2471L127.719 29.3291C127.74 29.3701 127.801 29.4111 127.904 29.4111C128.089 29.4111 128.253 29.2266 128.437 28.8779C128.499 28.7754 128.56 28.7139 128.642 28.6523C129.668 27.6885 130.549 26.1094 131.329 23.9561C131.616 23.2383 131.944 22.8896 132.334 22.8896C132.621 22.8896 132.969 23.0127 133.4 23.2588C133.708 23.4434 133.872 23.6279 133.872 23.833C133.872 23.8535 133.872 23.915 133.851 23.9766C133.831 24.0586 133.79 24.1406 133.749 24.2227C133.687 24.3047 133.667 24.3662 133.667 24.4072V24.4688C133.667 24.4893 133.749 24.5098 133.933 24.5303C134.118 24.5508 134.2 24.6123 134.2 24.7354C134.2 24.8584 134.118 25.084 133.954 25.3711C133.667 25.8223 133.462 26.417 133.339 27.1963C133.298 27.5039 133.236 27.7295 133.133 27.8525C133.051 27.9756 132.969 28.4678 132.887 29.3086C132.826 30.1494 132.785 30.7236 132.785 31.0723C132.785 31.2979 132.805 31.4414 132.846 31.5029C132.887 31.5645 132.908 31.626 132.928 31.708C132.928 31.79 132.928 31.8721 132.908 31.9336C132.887 31.9951 132.887 32.0566 132.887 32.1182C132.887 32.4668 133.01 32.6514 133.256 32.6514C133.441 32.5693 133.667 32.3848 133.974 32.1182C134.795 31.3799 135.266 30.8467 135.41 30.5391C135.697 30.0674 136.046 29.6162 136.435 29.1855C136.825 28.7549 137.173 28.2627 137.522 27.75L137.789 27.3193C137.973 27.0732 138.117 26.8271 138.219 26.5605C138.301 26.417 138.506 26.1094 138.855 25.6582C139.06 25.3916 139.224 25.1455 139.347 24.9404C140.844 22.8281 141.685 20.7773 141.87 18.7881C141.87 18.5215 141.89 18.3164 141.952 18.1318C141.993 18.1318 142.054 18.1934 142.116 18.3164C142.177 18.46 142.259 18.6445 142.362 18.8906C142.629 19.957 142.608 21.0439 142.3 22.1309C142.177 22.418 142.116 22.623 142.116 22.7051C142.116 22.7461 142.136 22.7666 142.157 22.7666C142.177 22.7871 142.198 22.7871 142.218 22.7871C142.239 22.8076 142.259 22.8076 142.28 22.8076C142.3 22.8281 142.3 22.8281 142.3 22.8486L142.013 23.3613C141.521 24.1201 141.07 24.8994 140.639 25.7197C139.881 27.1143 138.999 28.5703 137.973 30.0674C137.358 30.9697 136.497 32.0771 135.389 33.3691C135.287 33.4717 135.205 33.5742 135.123 33.6973C134.938 33.9229 134.856 34.0664 134.856 34.1279C134.856 34.1484 134.877 34.1689 134.897 34.1689C134.918 34.1689 135.02 34.1074 135.184 33.9844C135.369 33.8613 135.451 33.7793 135.471 33.7793C137.071 32.2617 138.178 30.8262 138.835 29.4727C138.835 29.4316 138.937 29.3086 139.142 29.0625C139.265 28.8984 139.47 28.5088 139.778 27.8936C140.988 25.5146 141.767 24.2227 142.095 23.9971C142.095 24.2021 141.911 24.6328 141.562 25.2891L141.255 25.9248C141.07 26.376 140.783 26.9502 140.393 27.6475C140.004 28.3447 139.655 28.8779 139.388 29.2471C139.306 29.3496 139.265 29.4521 139.245 29.5957C139.245 29.8008 138.732 30.5391 137.707 31.8105C137.399 32.2002 137.173 32.4668 137.05 32.6514C137.009 32.7129 136.989 32.7539 136.968 32.8154C136.948 33 136.62 33.3896 136.025 34.0254C135.246 34.7021 134.548 35.0508 133.954 35.0508ZM128.54 31.9131C128.642 31.9131 128.97 31.6465 129.524 31.0928C130.139 30.4775 130.508 29.9854 130.652 29.6367C130.652 29.5342 130.631 29.4932 130.57 29.4727C130.467 29.4727 130.242 29.6982 129.893 30.1699C129.852 30.2314 129.75 30.334 129.606 30.5186C129.442 30.7031 129.278 30.9082 129.114 31.1133C128.95 31.3184 128.806 31.5029 128.704 31.6465C128.581 31.79 128.519 31.8721 128.499 31.8926C128.499 31.9131 128.519 31.9131 128.54 31.9131ZM141.829 23.915L141.808 23.874C141.808 23.751 141.87 23.5869 142.013 23.4229V23.4023C142.095 23.2998 142.157 23.2588 142.177 23.2588C142.198 23.2588 142.218 23.2793 142.218 23.3203C142.218 23.3613 142.198 23.4229 142.177 23.5254C142.157 23.6074 142.095 23.6895 142.034 23.792C141.972 23.874 141.911 23.915 141.829 23.915ZM144.833 34.3945C144.628 34.415 144.402 34.415 144.197 34.415C143.705 34.4355 143.459 34.3945 143.459 34.333C143.459 34.3125 143.684 34.2305 144.135 34.1279L144.525 34.0459C144.648 34.0459 144.894 33.9844 145.263 33.8818C146.022 33.6562 146.494 33.4922 146.678 33.3691C146.74 33.3076 146.842 33.2461 147.027 33.1641C147.191 33.1641 147.519 32.9795 147.991 32.6309C148.217 32.4668 148.34 32.3438 148.36 32.2412C148.36 32.2207 148.34 32.2002 148.299 32.2002C148.217 32.2002 147.806 32.4053 147.048 32.7744C145.94 33.3691 144.935 33.7178 143.992 33.8203C143.049 33.9023 142.208 33.6973 141.449 33.2051C140.936 32.8564 140.67 32.3027 140.649 31.5439C140.649 31.4004 140.69 31.3184 140.731 31.3184C140.772 31.3184 140.875 31.3594 140.998 31.4824C141.018 31.5029 141.059 31.5234 141.1 31.5234L141.572 31.9131C142.064 32.2002 142.659 32.3232 143.295 32.2617C143.93 32.2002 144.484 32.0566 144.956 31.8311C145.817 31.5029 146.555 31.0928 147.171 30.6006C147.478 30.375 147.622 30.1904 147.642 30.0674C147.642 30.0059 147.622 29.9443 147.581 29.8623C147.478 29.6982 147.335 29.5957 147.191 29.5957C147.027 29.5752 146.863 29.4932 146.699 29.3291C146.494 29.1855 146.33 29.124 146.227 29.1445C145.797 29.1035 145.12 28.8574 144.217 28.3652C143.787 28.1602 143.541 27.9961 143.459 27.832C143.377 27.6885 143.315 27.4834 143.233 27.1963C143.028 26.417 142.967 25.7402 143.028 25.166C143.049 24.9404 143.11 24.6738 143.233 24.3252C143.971 23.3408 144.874 22.4385 145.94 21.6182C147.007 20.7773 148.093 20.3057 149.221 20.2031H149.283C150.001 20.3057 150.513 20.6338 150.821 21.1875C151.231 21.9258 151.395 22.7256 151.313 23.6279C151.272 23.915 151.17 24.0586 150.985 24.0791C150.821 24.0996 150.616 24.0381 150.37 23.915C150.001 23.751 149.57 23.6689 149.098 23.6689C147.663 23.8125 146.514 24.6123 145.612 26.0684C145.612 26.1709 145.571 26.2324 145.509 26.2529C145.448 26.2939 145.407 26.335 145.407 26.376C145.386 26.5195 145.674 26.6836 146.268 26.8682C146.596 26.9707 146.781 27.0322 146.781 27.0322C146.801 27.0527 146.822 27.0527 146.842 27.0527C147.499 27.2578 148.176 27.5449 148.873 27.9346C149.673 28.4062 150.103 29.1445 150.165 30.1699V30.7031C150.103 31.2773 149.98 31.6875 149.775 31.9131C149.714 31.9746 149.55 32.1387 149.262 32.4053C149.242 32.4053 149.242 32.4258 149.242 32.4258C148.996 32.6514 148.811 32.7744 148.688 32.8154C148.586 32.8564 148.504 32.918 148.463 33C148.381 33.1025 148.073 33.2871 147.54 33.5742C146.617 34.0459 145.715 34.3125 144.833 34.3945ZM149.816 22.4795C149.878 22.418 149.919 22.377 149.939 22.3154C149.939 22.2334 149.816 22.1309 149.57 22.0693C149.324 22.0078 149.078 21.9873 148.832 22.0078C148.627 22.0283 148.442 22.0693 148.237 22.1514C147.704 22.377 147.376 22.5615 147.294 22.7256L147.704 22.623C148.237 22.4385 148.606 22.3359 148.791 22.3154C148.996 22.2949 149.324 22.3564 149.816 22.4795Z" fill="black"/>
</svg>
